<mxfile host="app.diagrams.net" agent="Mozilla/5.0 (Windows NT 10.0; Win64; x64) AppleWebKit/537.36 (KHTML, like Gecko) Chrome/130.0.0.0 Safari/537.36" version="24.8.3">
  <diagram name="PÃ¡gina-1" id="0BjS35sb3P0nZZ5RLoXD">
    <mxGraphModel dx="2902" dy="1448" grid="0" gridSize="10" guides="1" tooltips="1" connect="1" arrows="1" fold="1" page="1" pageScale="1" pageWidth="827" pageHeight="1169" math="0" shadow="0">
      <root>
        <mxCell id="0" />
        <mxCell id="1" parent="0" />
        <mxCell id="iueE4eXsbI2JWCtUVOEt-12" value="" style="group" vertex="1" connectable="0" parent="1">
          <mxGeometry x="200" y="40" width="200" height="350" as="geometry" />
        </mxCell>
        <mxCell id="iueE4eXsbI2JWCtUVOEt-3" value="" style="rounded=1;whiteSpace=wrap;html=1;" vertex="1" parent="iueE4eXsbI2JWCtUVOEt-12">
          <mxGeometry width="200" height="350" as="geometry" />
        </mxCell>
        <mxCell id="iueE4eXsbI2JWCtUVOEt-10" value="" style="group" vertex="1" connectable="0" parent="iueE4eXsbI2JWCtUVOEt-12">
          <mxGeometry x="20" y="130" width="160" height="180" as="geometry" />
        </mxCell>
        <mxCell id="iueE4eXsbI2JWCtUVOEt-4" value="" style="rounded=1;whiteSpace=wrap;html=1;container=1;" vertex="1" parent="iueE4eXsbI2JWCtUVOEt-10">
          <mxGeometry width="70" height="49.09090909090909" as="geometry" />
        </mxCell>
        <mxCell id="iueE4eXsbI2JWCtUVOEt-5" value="" style="rounded=1;whiteSpace=wrap;html=1;" vertex="1" parent="iueE4eXsbI2JWCtUVOEt-10">
          <mxGeometry x="90" width="70" height="49.09090909090909" as="geometry" />
        </mxCell>
        <mxCell id="iueE4eXsbI2JWCtUVOEt-6" value="" style="rounded=1;whiteSpace=wrap;html=1;" vertex="1" parent="iueE4eXsbI2JWCtUVOEt-10">
          <mxGeometry y="65.45454545454545" width="70" height="49.09090909090909" as="geometry" />
        </mxCell>
        <mxCell id="iueE4eXsbI2JWCtUVOEt-7" value="" style="rounded=1;whiteSpace=wrap;html=1;" vertex="1" parent="iueE4eXsbI2JWCtUVOEt-10">
          <mxGeometry x="90" y="65.45454545454545" width="70" height="49.09090909090909" as="geometry" />
        </mxCell>
        <mxCell id="iueE4eXsbI2JWCtUVOEt-8" value="" style="rounded=1;whiteSpace=wrap;html=1;" vertex="1" parent="iueE4eXsbI2JWCtUVOEt-10">
          <mxGeometry y="130.9090909090909" width="70" height="49.09090909090909" as="geometry" />
        </mxCell>
        <mxCell id="iueE4eXsbI2JWCtUVOEt-9" value="" style="rounded=1;whiteSpace=wrap;html=1;" vertex="1" parent="iueE4eXsbI2JWCtUVOEt-10">
          <mxGeometry x="90" y="130.9090909090909" width="70" height="49.09090909090909" as="geometry" />
        </mxCell>
        <mxCell id="iueE4eXsbI2JWCtUVOEt-11" value="" style="ellipse;whiteSpace=wrap;html=1;" vertex="1" parent="iueE4eXsbI2JWCtUVOEt-12">
          <mxGeometry x="70.5" y="41" width="59" height="59" as="geometry" />
        </mxCell>
        <mxCell id="iueE4eXsbI2JWCtUVOEt-13" value="v" style="group" vertex="1" connectable="0" parent="1">
          <mxGeometry x="530" y="40" width="200" height="350" as="geometry" />
        </mxCell>
        <mxCell id="iueE4eXsbI2JWCtUVOEt-14" value="" style="rounded=1;whiteSpace=wrap;html=1;" vertex="1" parent="iueE4eXsbI2JWCtUVOEt-13">
          <mxGeometry width="200" height="350" as="geometry" />
        </mxCell>
        <mxCell id="iueE4eXsbI2JWCtUVOEt-27" value="" style="rounded=1;whiteSpace=wrap;html=1;" vertex="1" parent="iueE4eXsbI2JWCtUVOEt-13">
          <mxGeometry x="40.5" y="123" width="119" height="25" as="geometry" />
        </mxCell>
        <mxCell id="iueE4eXsbI2JWCtUVOEt-28" value="" style="rounded=1;whiteSpace=wrap;html=1;" vertex="1" parent="iueE4eXsbI2JWCtUVOEt-13">
          <mxGeometry x="40.5" y="162.5" width="119" height="25" as="geometry" />
        </mxCell>
        <mxCell id="iueE4eXsbI2JWCtUVOEt-29" value="&lt;b&gt;Login&lt;/b&gt;" style="rounded=1;whiteSpace=wrap;html=1;fillColor=#000000;" vertex="1" parent="iueE4eXsbI2JWCtUVOEt-13">
          <mxGeometry x="40.5" y="242" width="119" height="25" as="geometry" />
        </mxCell>
        <mxCell id="iueE4eXsbI2JWCtUVOEt-30" value="v" style="group" vertex="1" connectable="0" parent="1">
          <mxGeometry x="530" y="524" width="200" height="350" as="geometry" />
        </mxCell>
        <mxCell id="iueE4eXsbI2JWCtUVOEt-31" value="" style="rounded=1;whiteSpace=wrap;html=1;" vertex="1" parent="iueE4eXsbI2JWCtUVOEt-30">
          <mxGeometry width="200" height="350" as="geometry" />
        </mxCell>
        <mxCell id="iueE4eXsbI2JWCtUVOEt-32" value="" style="rounded=1;whiteSpace=wrap;html=1;" vertex="1" parent="iueE4eXsbI2JWCtUVOEt-30">
          <mxGeometry x="40.5" y="63" width="119" height="25" as="geometry" />
        </mxCell>
        <mxCell id="iueE4eXsbI2JWCtUVOEt-34" value="&lt;b&gt;Login&lt;/b&gt;" style="rounded=1;whiteSpace=wrap;html=1;fillColor=#000000;" vertex="1" parent="iueE4eXsbI2JWCtUVOEt-30">
          <mxGeometry x="40.5" y="242" width="119" height="25" as="geometry" />
        </mxCell>
        <mxCell id="iueE4eXsbI2JWCtUVOEt-35" value="v" style="group" vertex="1" connectable="0" parent="1">
          <mxGeometry x="827" y="524" width="200" height="350" as="geometry" />
        </mxCell>
        <mxCell id="iueE4eXsbI2JWCtUVOEt-36" value="" style="rounded=1;whiteSpace=wrap;html=1;" vertex="1" parent="iueE4eXsbI2JWCtUVOEt-35">
          <mxGeometry width="200" height="350" as="geometry" />
        </mxCell>
        <mxCell id="iueE4eXsbI2JWCtUVOEt-38" value="&lt;b&gt;Login&lt;/b&gt;" style="rounded=1;whiteSpace=wrap;html=1;fillColor=#000000;" vertex="1" parent="iueE4eXsbI2JWCtUVOEt-35">
          <mxGeometry x="40.5" y="242" width="119" height="25" as="geometry" />
        </mxCell>
        <mxCell id="iueE4eXsbI2JWCtUVOEt-42" value="" style="group" vertex="1" connectable="0" parent="iueE4eXsbI2JWCtUVOEt-35">
          <mxGeometry x="40.5" y="63" width="119.44379844961239" height="25" as="geometry" />
        </mxCell>
        <mxCell id="iueE4eXsbI2JWCtUVOEt-37" value="" style="rounded=1;whiteSpace=wrap;html=1;" vertex="1" parent="iueE4eXsbI2JWCtUVOEt-42">
          <mxGeometry y="1.8518518518518519" width="22.684341085271317" height="23.14814814814815" as="geometry" />
        </mxCell>
        <mxCell id="iueE4eXsbI2JWCtUVOEt-39" value="" style="rounded=1;whiteSpace=wrap;html=1;" vertex="1" parent="iueE4eXsbI2JWCtUVOEt-42">
          <mxGeometry x="31.94325581395349" y="1.8518518518518519" width="22.684341085271317" height="23.14814814814815" as="geometry" />
        </mxCell>
        <mxCell id="iueE4eXsbI2JWCtUVOEt-40" value="&lt;span style=&quot;color: rgba(0, 0, 0, 0); font-family: monospace; font-size: 0px; text-align: start; text-wrap-mode: nowrap;&quot;&gt;%3CmxGraphModel%3E%3Croot%3E%3CmxCell%20id%3D%220%22%2F%3E%3CmxCell%20id%3D%221%22%20parent%3D%220%22%2F%3E%3CmxCell%20id%3D%222%22%20value%3D%22v%22%20style%3D%22group%22%20vertex%3D%221%22%20connectable%3D%220%22%20parent%3D%221%22%3E%3CmxGeometry%20x%3D%22827%22%20y%3D%22524%22%20width%3D%22200%22%20height%3D%22350%22%20as%3D%22geometry%22%2F%3E%3C%2FmxCell%3E%3CmxCell%20id%3D%223%22%20value%3D%22%22%20style%3D%22rounded%3D1%3BwhiteSpace%3Dwrap%3Bhtml%3D1%3B%22%20vertex%3D%221%22%20parent%3D%222%22%3E%3CmxGeometry%20width%3D%22200%22%20height%3D%22350%22%20as%3D%22geometry%22%2F%3E%3C%2FmxCell%3E%3CmxCell%20id%3D%224%22%20value%3D%22%26lt%3Bb%26gt%3BLogin%26lt%3B%2Fb%26gt%3B%22%20style%3D%22rounded%3D1%3BwhiteSpace%3Dwrap%3Bhtml%3D1%3BfillColor%3D%23000000%3B%22%20vertex%3D%221%22%20parent%3D%222%22%3E%3CmxGeometry%20x%3D%2240.5%22%20y%3D%22242%22%20width%3D%22119%22%20height%3D%2225%22%20as%3D%22geometry%22%2F%3E%3C%2FmxCell%3E%3CmxCell%20id%3D%225%22%20value%3D%22%22%20style%3D%22group%22%20vertex%3D%221%22%20connectable%3D%220%22%20parent%3D%222%22%3E%3CmxGeometry%20x%3D%2240.5%22%20y%3D%2263%22%20width%3D%22119.44%22%20height%3D%2225%22%20as%3D%22geometry%22%2F%3E%3C%2FmxCell%3E%3CmxCell%20id%3D%226%22%20value%3D%22%22%20style%3D%22rounded%3D1%3BwhiteSpace%3Dwrap%3Bhtml%3D1%3B%22%20vertex%3D%221%22%20parent%3D%225%22%3E%3CmxGeometry%20y%3D%221.8518518518518519%22%20width%3D%2222.684341085271317%22%20height%3D%2223.14814814814815%22%20as%3D%22geometry%22%2F%3E%3C%2FmxCell%3E%3CmxCell%20id%3D%227%22%20value%3D%22%22%20style%3D%22rounded%3D1%3BwhiteSpace%3Dwrap%3Bhtml%3D1%3B%22%20vertex%3D%221%22%20parent%3D%225%22%3E%3CmxGeometry%20x%3D%2231.94325581395349%22%20y%3D%221.8518518518518519%22%20width%3D%2222.684341085271317%22%20height%3D%2223.14814814814815%22%20as%3D%22geometry%22%2F%3E%3C%2FmxCell%3E%3CmxCell%20id%3D%228%22%20value%3D%22%22%20style%3D%22rounded%3D1%3BwhiteSpace%3Dwrap%3Bhtml%3D1%3B%22%20vertex%3D%221%22%20parent%3D%225%22%3E%3CmxGeometry%20x%3D%2264.34945736434109%22%20y%3D%221.8518518518518519%22%20width%3D%2222.684341085271317%22%20height%3D%2223.14814814814815%22%20as%3D%22geometry%22%2F%3E%3C%2FmxCell%3E%3C%2Froot%3E%3C%2FmxGraphModel%3E&lt;/span&gt;" style="rounded=1;whiteSpace=wrap;html=1;" vertex="1" parent="iueE4eXsbI2JWCtUVOEt-42">
          <mxGeometry x="64.34945736434109" y="1.8518518518518519" width="22.684341085271317" height="23.14814814814815" as="geometry" />
        </mxCell>
        <mxCell id="iueE4eXsbI2JWCtUVOEt-58" value="&lt;span style=&quot;color: rgba(0, 0, 0, 0); font-family: monospace; font-size: 0px; text-align: start; text-wrap-mode: nowrap;&quot;&gt;%3CmxGraphModel%3E%3Croot%3E%3CmxCell%20id%3D%220%22%2F%3E%3CmxCell%20id%3D%221%22%20parent%3D%220%22%2F%3E%3CmxCell%20id%3D%222%22%20value%3D%22v%22%20style%3D%22group%22%20vertex%3D%221%22%20connectable%3D%220%22%20parent%3D%221%22%3E%3CmxGeometry%20x%3D%22827%22%20y%3D%22524%22%20width%3D%22200%22%20height%3D%22350%22%20as%3D%22geometry%22%2F%3E%3C%2FmxCell%3E%3CmxCell%20id%3D%223%22%20value%3D%22%22%20style%3D%22rounded%3D1%3BwhiteSpace%3Dwrap%3Bhtml%3D1%3B%22%20vertex%3D%221%22%20parent%3D%222%22%3E%3CmxGeometry%20width%3D%22200%22%20height%3D%22350%22%20as%3D%22geometry%22%2F%3E%3C%2FmxCell%3E%3CmxCell%20id%3D%224%22%20value%3D%22%26lt%3Bb%26gt%3BLogin%26lt%3B%2Fb%26gt%3B%22%20style%3D%22rounded%3D1%3BwhiteSpace%3Dwrap%3Bhtml%3D1%3BfillColor%3D%23000000%3B%22%20vertex%3D%221%22%20parent%3D%222%22%3E%3CmxGeometry%20x%3D%2240.5%22%20y%3D%22242%22%20width%3D%22119%22%20height%3D%2225%22%20as%3D%22geometry%22%2F%3E%3C%2FmxCell%3E%3CmxCell%20id%3D%225%22%20value%3D%22%22%20style%3D%22group%22%20vertex%3D%221%22%20connectable%3D%220%22%20parent%3D%222%22%3E%3CmxGeometry%20x%3D%2240.5%22%20y%3D%2263%22%20width%3D%22119.44%22%20height%3D%2225%22%20as%3D%22geometry%22%2F%3E%3C%2FmxCell%3E%3CmxCell%20id%3D%226%22%20value%3D%22%22%20style%3D%22rounded%3D1%3BwhiteSpace%3Dwrap%3Bhtml%3D1%3B%22%20vertex%3D%221%22%20parent%3D%225%22%3E%3CmxGeometry%20y%3D%221.8518518518518519%22%20width%3D%2222.684341085271317%22%20height%3D%2223.14814814814815%22%20as%3D%22geometry%22%2F%3E%3C%2FmxCell%3E%3CmxCell%20id%3D%227%22%20value%3D%22%22%20style%3D%22rounded%3D1%3BwhiteSpace%3Dwrap%3Bhtml%3D1%3B%22%20vertex%3D%221%22%20parent%3D%225%22%3E%3CmxGeometry%20x%3D%2231.94325581395349%22%20y%3D%221.8518518518518519%22%20width%3D%2222.684341085271317%22%20height%3D%2223.14814814814815%22%20as%3D%22geometry%22%2F%3E%3C%2FmxCell%3E%3CmxCell%20id%3D%228%22%20value%3D%22%22%20style%3D%22rounded%3D1%3BwhiteSpace%3Dwrap%3Bhtml%3D1%3B%22%20vertex%3D%221%22%20parent%3D%225%22%3E%3CmxGeometry%20x%3D%2264.34945736434109%22%20y%3D%221.8518518518518519%22%20width%3D%2222.684341085271317%22%20height%3D%2223.14814814814815%22%20as%3D%22geometry%22%2F%3E%3C%2FmxCell%3E%3C%2Froot%3E%3C%2FmxGraphModel%3E&lt;/span&gt;" style="rounded=1;whiteSpace=wrap;html=1;" vertex="1" parent="iueE4eXsbI2JWCtUVOEt-42">
          <mxGeometry x="96.75945736434107" y="0.9218518518518977" width="22.684341085271317" height="23.14814814814815" as="geometry" />
        </mxCell>
        <mxCell id="iueE4eXsbI2JWCtUVOEt-43" value="v" style="group" vertex="1" connectable="0" parent="1">
          <mxGeometry x="1091" y="522" width="200" height="350" as="geometry" />
        </mxCell>
        <mxCell id="iueE4eXsbI2JWCtUVOEt-44" value="" style="rounded=1;whiteSpace=wrap;html=1;" vertex="1" parent="iueE4eXsbI2JWCtUVOEt-43">
          <mxGeometry width="200" height="350" as="geometry" />
        </mxCell>
        <mxCell id="iueE4eXsbI2JWCtUVOEt-45" value="&lt;b&gt;Login&lt;/b&gt;" style="rounded=1;whiteSpace=wrap;html=1;fillColor=#000000;" vertex="1" parent="iueE4eXsbI2JWCtUVOEt-43">
          <mxGeometry x="40.5" y="242" width="119" height="25" as="geometry" />
        </mxCell>
        <mxCell id="iueE4eXsbI2JWCtUVOEt-46" value="" style="group" vertex="1" connectable="0" parent="iueE4eXsbI2JWCtUVOEt-43">
          <mxGeometry x="40.5" y="63" width="119.44" height="25" as="geometry" />
        </mxCell>
        <mxCell id="iueE4eXsbI2JWCtUVOEt-47" value="" style="rounded=1;whiteSpace=wrap;html=1;" vertex="1" parent="iueE4eXsbI2JWCtUVOEt-46">
          <mxGeometry y="1.85" width="118" height="23.15" as="geometry" />
        </mxCell>
        <mxCell id="iueE4eXsbI2JWCtUVOEt-64" value="" style="group" vertex="1" connectable="0" parent="iueE4eXsbI2JWCtUVOEt-43">
          <mxGeometry x="40.5" y="95" width="119.44" height="25" as="geometry" />
        </mxCell>
        <mxCell id="iueE4eXsbI2JWCtUVOEt-65" value="" style="rounded=1;whiteSpace=wrap;html=1;" vertex="1" parent="iueE4eXsbI2JWCtUVOEt-64">
          <mxGeometry y="1.85" width="118" height="23.15" as="geometry" />
        </mxCell>
        <mxCell id="iueE4eXsbI2JWCtUVOEt-66" value="" style="group" vertex="1" connectable="0" parent="iueE4eXsbI2JWCtUVOEt-43">
          <mxGeometry x="40.5" y="127" width="119.44" height="25" as="geometry" />
        </mxCell>
        <mxCell id="iueE4eXsbI2JWCtUVOEt-67" value="" style="rounded=1;whiteSpace=wrap;html=1;" vertex="1" parent="iueE4eXsbI2JWCtUVOEt-66">
          <mxGeometry y="1.85" width="118" height="23.15" as="geometry" />
        </mxCell>
        <mxCell id="iueE4eXsbI2JWCtUVOEt-68" value="" style="group" vertex="1" connectable="0" parent="iueE4eXsbI2JWCtUVOEt-43">
          <mxGeometry x="39.059999999999945" y="159" width="119.44" height="25" as="geometry" />
        </mxCell>
        <mxCell id="iueE4eXsbI2JWCtUVOEt-69" value="" style="rounded=1;whiteSpace=wrap;html=1;" vertex="1" parent="iueE4eXsbI2JWCtUVOEt-68">
          <mxGeometry y="1.85" width="118" height="23.15" as="geometry" />
        </mxCell>
        <mxCell id="iueE4eXsbI2JWCtUVOEt-70" value="v" style="group" vertex="1" connectable="0" parent="1">
          <mxGeometry x="1400" y="521" width="200" height="350" as="geometry" />
        </mxCell>
        <mxCell id="iueE4eXsbI2JWCtUVOEt-71" value="" style="rounded=1;whiteSpace=wrap;html=1;" vertex="1" parent="iueE4eXsbI2JWCtUVOEt-70">
          <mxGeometry width="200" height="350" as="geometry" />
        </mxCell>
        <mxCell id="iueE4eXsbI2JWCtUVOEt-76" value="" style="group" vertex="1" connectable="0" parent="iueE4eXsbI2JWCtUVOEt-70">
          <mxGeometry x="30" y="99" width="140" height="38.71" as="geometry" />
        </mxCell>
        <mxCell id="iueE4eXsbI2JWCtUVOEt-73" value="&lt;span style=&quot;color: rgba(0, 0, 0, 0); font-family: monospace; font-size: 0px; text-align: start; text-wrap-mode: nowrap;&quot;&gt;%3CmxGraphModel%3E%3Croot%3E%3CmxCell%20id%3D%220%22%2F%3E%3CmxCell%20id%3D%221%22%20parent%3D%220%22%2F%3E%3CmxCell%20id%3D%222%22%20value%3D%22%22%20style%3D%22rounded%3D1%3BwhiteSpace%3Dwrap%3Bhtml%3D1%3BfillColor%3D%23000000%3B%22%20vertex%3D%221%22%20parent%3D%221%22%3E%3CmxGeometry%20x%3D%221490%22%20y%3D%22590%22%20width%3D%2249.5%22%20height%3D%2247%22%20as%3D%22geometry%22%2F%3E%3C%2FmxCell%3E%3C%2Froot%3E%3C%2FmxGraphModel%3E&lt;/span&gt;" style="rounded=1;whiteSpace=wrap;html=1;fillColor=#000000;" vertex="1" parent="iueE4eXsbI2JWCtUVOEt-76">
          <mxGeometry width="40.764705882352935" height="38.71" as="geometry" />
        </mxCell>
        <mxCell id="iueE4eXsbI2JWCtUVOEt-74" value="" style="rounded=1;whiteSpace=wrap;html=1;fillColor=#000000;" vertex="1" parent="iueE4eXsbI2JWCtUVOEt-76">
          <mxGeometry x="49.41176470588235" width="40.764705882352935" height="38.71" as="geometry" />
        </mxCell>
        <mxCell id="iueE4eXsbI2JWCtUVOEt-75" value="" style="rounded=1;whiteSpace=wrap;html=1;fillColor=#000000;" vertex="1" parent="iueE4eXsbI2JWCtUVOEt-76">
          <mxGeometry x="99.23529411764706" width="40.764705882352935" height="38.71" as="geometry" />
        </mxCell>
        <mxCell id="iueE4eXsbI2JWCtUVOEt-77" value="&lt;span style=&quot;color: rgba(0, 0, 0, 0); font-family: monospace; font-size: 0px; text-align: start; text-wrap-mode: nowrap;&quot;&gt;%3CmxGraphModel%3E%3Croot%3E%3CmxCell%20id%3D%220%22%2F%3E%3CmxCell%20id%3D%221%22%20parent%3D%220%22%2F%3E%3CmxCell%20id%3D%222%22%20value%3D%22%22%20style%3D%22rounded%3D1%3BwhiteSpace%3Dwrap%3Bhtml%3D1%3BfillColor%3D%23000000%3B%22%20vertex%3D%221%22%20parent%3D%221%22%3E%3CmxGeometry%20x%3D%221490%22%20y%3D%22590%22%20width%3D%2249.5%22%20height%3D%2247%22%20as%3D%22geometry%22%2F%3E%3C%2FmxCell%3E%3C%2Froot%3E%3C%2FmxGraphModel%3E&lt;/span&gt;" style="rounded=1;whiteSpace=wrap;html=1;fillColor=#000000;" vertex="1" parent="iueE4eXsbI2JWCtUVOEt-70">
          <mxGeometry x="30" y="39" width="40.76" height="11" as="geometry" />
        </mxCell>
        <mxCell id="iueE4eXsbI2JWCtUVOEt-78" value="&lt;span style=&quot;color: rgba(0, 0, 0, 0); font-family: monospace; font-size: 0px; text-align: start; text-wrap-mode: nowrap;&quot;&gt;%3CmxGraphModel%3E%3Croot%3E%3CmxCell%20id%3D%220%22%2F%3E%3CmxCell%20id%3D%221%22%20parent%3D%220%22%2F%3E%3CmxCell%20id%3D%222%22%20value%3D%22v%22%20style%3D%22group%22%20vertex%3D%221%22%20connectable%3D%220%22%20parent%3D%221%22%3E%3CmxGeometry%20x%3D%221400%22%20y%3D%22521%22%20width%3D%22200%22%20height%3D%22350%22%20as%3D%22geometry%22%2F%3E%3C%2FmxCell%3E%3CmxCell%20id%3D%223%22%20value%3D%22%22%20style%3D%22rounded%3D1%3BwhiteSpace%3Dwrap%3Bhtml%3D1%3B%22%20vertex%3D%221%22%20parent%3D%222%22%3E%3CmxGeometry%20width%3D%22200%22%20height%3D%22350%22%20as%3D%22geometry%22%2F%3E%3C%2FmxCell%3E%3CmxCell%20id%3D%224%22%20value%3D%22%22%20style%3D%22group%22%20vertex%3D%221%22%20connectable%3D%220%22%20parent%3D%222%22%3E%3CmxGeometry%20x%3D%2230%22%20y%3D%2299%22%20width%3D%22140%22%20height%3D%2238.71%22%20as%3D%22geometry%22%2F%3E%3C%2FmxCell%3E%3CmxCell%20id%3D%225%22%20value%3D%22%26lt%3Bspan%20style%3D%26quot%3Bcolor%3A%20rgba(0%2C%200%2C%200%2C%200)%3B%20font-family%3A%20monospace%3B%20font-size%3A%200px%3B%20text-align%3A%20start%3B%20text-wrap-mode%3A%20nowrap%3B%26quot%3B%26gt%3B%253CmxGraphModel%253E%253Croot%253E%253CmxCell%2520id%253D%25220%2522%252F%253E%253CmxCell%2520id%253D%25221%2522%2520parent%253D%25220%2522%252F%253E%253CmxCell%2520id%253D%25222%2522%2520value%253D%2522%2522%2520style%253D%2522rounded%253D1%253BwhiteSpace%253Dwrap%253Bhtml%253D1%253BfillColor%253D%2523000000%253B%2522%2520vertex%253D%25221%2522%2520parent%253D%25221%2522%253E%253CmxGeometry%2520x%253D%25221490%2522%2520y%253D%2522590%2522%2520width%253D%252249.5%2522%2520height%253D%252247%2522%2520as%253D%2522geometry%2522%252F%253E%253C%252FmxCell%253E%253C%252Froot%253E%253C%252FmxGraphModel%253E%26lt%3B%2Fspan%26gt%3B%22%20style%3D%22rounded%3D1%3BwhiteSpace%3Dwrap%3Bhtml%3D1%3BfillColor%3D%23000000%3B%22%20vertex%3D%221%22%20parent%3D%224%22%3E%3CmxGeometry%20width%3D%2240.764705882352935%22%20height%3D%2238.71%22%20as%3D%22geometry%22%2F%3E%3C%2FmxCell%3E%3CmxCell%20id%3D%226%22%20value%3D%22%22%20style%3D%22rounded%3D1%3BwhiteSpace%3Dwrap%3Bhtml%3D1%3BfillColor%3D%23000000%3B%22%20vertex%3D%221%22%20parent%3D%224%22%3E%3CmxGeometry%20x%3D%2249.41176470588235%22%20width%3D%2240.764705882352935%22%20height%3D%2238.71%22%20as%3D%22geometry%22%2F%3E%3C%2FmxCell%3E%3CmxCell%20id%3D%227%22%20value%3D%22%22%20style%3D%22rounded%3D1%3BwhiteSpace%3Dwrap%3Bhtml%3D1%3BfillColor%3D%23000000%3B%22%20vertex%3D%221%22%20parent%3D%224%22%3E%3CmxGeometry%20x%3D%2299.23529411764706%22%20width%3D%2240.764705882352935%22%20height%3D%2238.71%22%20as%3D%22geometry%22%2F%3E%3C%2FmxCell%3E%3CmxCell%20id%3D%228%22%20value%3D%22%26lt%3Bspan%20style%3D%26quot%3Bcolor%3A%20rgba(0%2C%200%2C%200%2C%200)%3B%20font-family%3A%20monospace%3B%20font-size%3A%200px%3B%20text-align%3A%20start%3B%20text-wrap-mode%3A%20nowrap%3B%26quot%3B%26gt%3B%253CmxGraphModel%253E%253Croot%253E%253CmxCell%2520id%253D%25220%2522%252F%253E%253CmxCell%2520id%253D%25221%2522%2520parent%253D%25220%2522%252F%253E%253CmxCell%2520id%253D%25222%2522%2520value%253D%2522%2522%2520style%253D%2522rounded%253D1%253BwhiteSpace%253Dwrap%253Bhtml%253D1%253BfillColor%253D%2523000000%253B%2522%2520vertex%253D%25221%2522%2520parent%253D%25221%2522%253E%253CmxGeometry%2520x%253D%25221490%2522%2520y%253D%2522590%2522%2520width%253D%252249.5%2522%2520height%253D%252247%2522%2520as%253D%2522geometry%2522%252F%253E%253C%252FmxCell%253E%253C%252Froot%253E%253C%252FmxGraphModel%253E%26lt%3B%2Fspan%26gt%3B%22%20style%3D%22rounded%3D1%3BwhiteSpace%3Dwrap%3Bhtml%3D1%3BfillColor%3D%23000000%3B%22%20vertex%3D%221%22%20parent%3D%222%22%3E%3CmxGeometry%20x%3D%2230%22%20y%3D%2239%22%20width%3D%2240.76%22%20height%3D%2211%22%20as%3D%22geometry%22%2F%3E%3C%2FmxCell%3E%3CmxCell%20id%3D%229%22%20value%3D%22%22%20style%3D%22rounded%3D1%3BwhiteSpace%3Dwrap%3Bhtml%3D1%3B%22%20vertex%3D%221%22%20parent%3D%222%22%3E%3CmxGeometry%20x%3D%2230%22%20y%3D%22155%22%20width%3D%22140%22%20height%3D%2240%22%20as%3D%22geometry%22%2F%3E%3C%2FmxCell%3E%3C%2Froot%3E%3C%2FmxGraphModel%3E&lt;/span&gt;" style="rounded=1;whiteSpace=wrap;html=1;" vertex="1" parent="iueE4eXsbI2JWCtUVOEt-70">
          <mxGeometry x="30" y="155" width="140" height="40" as="geometry" />
        </mxCell>
        <mxCell id="iueE4eXsbI2JWCtUVOEt-87" value="&lt;span style=&quot;color: rgba(0, 0, 0, 0); font-family: monospace; font-size: 0px; text-align: start; text-wrap-mode: nowrap;&quot;&gt;%3CmxGraphModel%3E%3Croot%3E%3CmxCell%20id%3D%220%22%2F%3E%3CmxCell%20id%3D%221%22%20parent%3D%220%22%2F%3E%3CmxCell%20id%3D%222%22%20value%3D%22v%22%20style%3D%22group%22%20vertex%3D%221%22%20connectable%3D%220%22%20parent%3D%221%22%3E%3CmxGeometry%20x%3D%221400%22%20y%3D%22521%22%20width%3D%22200%22%20height%3D%22350%22%20as%3D%22geometry%22%2F%3E%3C%2FmxCell%3E%3CmxCell%20id%3D%223%22%20value%3D%22%22%20style%3D%22rounded%3D1%3BwhiteSpace%3Dwrap%3Bhtml%3D1%3B%22%20vertex%3D%221%22%20parent%3D%222%22%3E%3CmxGeometry%20width%3D%22200%22%20height%3D%22350%22%20as%3D%22geometry%22%2F%3E%3C%2FmxCell%3E%3CmxCell%20id%3D%224%22%20value%3D%22%22%20style%3D%22group%22%20vertex%3D%221%22%20connectable%3D%220%22%20parent%3D%222%22%3E%3CmxGeometry%20x%3D%2230%22%20y%3D%2299%22%20width%3D%22140%22%20height%3D%2238.71%22%20as%3D%22geometry%22%2F%3E%3C%2FmxCell%3E%3CmxCell%20id%3D%225%22%20value%3D%22%26lt%3Bspan%20style%3D%26quot%3Bcolor%3A%20rgba(0%2C%200%2C%200%2C%200)%3B%20font-family%3A%20monospace%3B%20font-size%3A%200px%3B%20text-align%3A%20start%3B%20text-wrap-mode%3A%20nowrap%3B%26quot%3B%26gt%3B%253CmxGraphModel%253E%253Croot%253E%253CmxCell%2520id%253D%25220%2522%252F%253E%253CmxCell%2520id%253D%25221%2522%2520parent%253D%25220%2522%252F%253E%253CmxCell%2520id%253D%25222%2522%2520value%253D%2522%2522%2520style%253D%2522rounded%253D1%253BwhiteSpace%253Dwrap%253Bhtml%253D1%253BfillColor%253D%2523000000%253B%2522%2520vertex%253D%25221%2522%2520parent%253D%25221%2522%253E%253CmxGeometry%2520x%253D%25221490%2522%2520y%253D%2522590%2522%2520width%253D%252249.5%2522%2520height%253D%252247%2522%2520as%253D%2522geometry%2522%252F%253E%253C%252FmxCell%253E%253C%252Froot%253E%253C%252FmxGraphModel%253E%26lt%3B%2Fspan%26gt%3B%22%20style%3D%22rounded%3D1%3BwhiteSpace%3Dwrap%3Bhtml%3D1%3BfillColor%3D%23000000%3B%22%20vertex%3D%221%22%20parent%3D%224%22%3E%3CmxGeometry%20width%3D%2240.764705882352935%22%20height%3D%2238.71%22%20as%3D%22geometry%22%2F%3E%3C%2FmxCell%3E%3CmxCell%20id%3D%226%22%20value%3D%22%22%20style%3D%22rounded%3D1%3BwhiteSpace%3Dwrap%3Bhtml%3D1%3BfillColor%3D%23000000%3B%22%20vertex%3D%221%22%20parent%3D%224%22%3E%3CmxGeometry%20x%3D%2249.41176470588235%22%20width%3D%2240.764705882352935%22%20height%3D%2238.71%22%20as%3D%22geometry%22%2F%3E%3C%2FmxCell%3E%3CmxCell%20id%3D%227%22%20value%3D%22%22%20style%3D%22rounded%3D1%3BwhiteSpace%3Dwrap%3Bhtml%3D1%3BfillColor%3D%23000000%3B%22%20vertex%3D%221%22%20parent%3D%224%22%3E%3CmxGeometry%20x%3D%2299.23529411764706%22%20width%3D%2240.764705882352935%22%20height%3D%2238.71%22%20as%3D%22geometry%22%2F%3E%3C%2FmxCell%3E%3CmxCell%20id%3D%228%22%20value%3D%22%26lt%3Bspan%20style%3D%26quot%3Bcolor%3A%20rgba(0%2C%200%2C%200%2C%200)%3B%20font-family%3A%20monospace%3B%20font-size%3A%200px%3B%20text-align%3A%20start%3B%20text-wrap-mode%3A%20nowrap%3B%26quot%3B%26gt%3B%253CmxGraphModel%253E%253Croot%253E%253CmxCell%2520id%253D%25220%2522%252F%253E%253CmxCell%2520id%253D%25221%2522%2520parent%253D%25220%2522%252F%253E%253CmxCell%2520id%253D%25222%2522%2520value%253D%2522%2522%2520style%253D%2522rounded%253D1%253BwhiteSpace%253Dwrap%253Bhtml%253D1%253BfillColor%253D%2523000000%253B%2522%2520vertex%253D%25221%2522%2520parent%253D%25221%2522%253E%253CmxGeometry%2520x%253D%25221490%2522%2520y%253D%2522590%2522%2520width%253D%252249.5%2522%2520height%253D%252247%2522%2520as%253D%2522geometry%2522%252F%253E%253C%252FmxCell%253E%253C%252Froot%253E%253C%252FmxGraphModel%253E%26lt%3B%2Fspan%26gt%3B%22%20style%3D%22rounded%3D1%3BwhiteSpace%3Dwrap%3Bhtml%3D1%3BfillColor%3D%23000000%3B%22%20vertex%3D%221%22%20parent%3D%222%22%3E%3CmxGeometry%20x%3D%2230%22%20y%3D%2239%22%20width%3D%2240.76%22%20height%3D%2211%22%20as%3D%22geometry%22%2F%3E%3C%2FmxCell%3E%3CmxCell%20id%3D%229%22%20value%3D%22%22%20style%3D%22rounded%3D1%3BwhiteSpace%3Dwrap%3Bhtml%3D1%3B%22%20vertex%3D%221%22%20parent%3D%222%22%3E%3CmxGeometry%20x%3D%2230%22%20y%3D%22155%22%20width%3D%22140%22%20height%3D%2240%22%20as%3D%22geometry%22%2F%3E%3C%2FmxCell%3E%3C%2Froot%3E%3C%2FmxGraphModel%3E&lt;/span&gt;" style="rounded=1;whiteSpace=wrap;html=1;" vertex="1" parent="iueE4eXsbI2JWCtUVOEt-70">
          <mxGeometry x="30" y="209" width="140" height="40" as="geometry" />
        </mxCell>
        <mxCell id="iueE4eXsbI2JWCtUVOEt-88" value="&lt;span style=&quot;color: rgba(0, 0, 0, 0); font-family: monospace; font-size: 0px; text-align: start; text-wrap-mode: nowrap;&quot;&gt;%3CmxGraphModel%3E%3Croot%3E%3CmxCell%20id%3D%220%22%2F%3E%3CmxCell%20id%3D%221%22%20parent%3D%220%22%2F%3E%3CmxCell%20id%3D%222%22%20value%3D%22v%22%20style%3D%22group%22%20vertex%3D%221%22%20connectable%3D%220%22%20parent%3D%221%22%3E%3CmxGeometry%20x%3D%221400%22%20y%3D%22521%22%20width%3D%22200%22%20height%3D%22350%22%20as%3D%22geometry%22%2F%3E%3C%2FmxCell%3E%3CmxCell%20id%3D%223%22%20value%3D%22%22%20style%3D%22rounded%3D1%3BwhiteSpace%3Dwrap%3Bhtml%3D1%3B%22%20vertex%3D%221%22%20parent%3D%222%22%3E%3CmxGeometry%20width%3D%22200%22%20height%3D%22350%22%20as%3D%22geometry%22%2F%3E%3C%2FmxCell%3E%3CmxCell%20id%3D%224%22%20value%3D%22%22%20style%3D%22group%22%20vertex%3D%221%22%20connectable%3D%220%22%20parent%3D%222%22%3E%3CmxGeometry%20x%3D%2230%22%20y%3D%2299%22%20width%3D%22140%22%20height%3D%2238.71%22%20as%3D%22geometry%22%2F%3E%3C%2FmxCell%3E%3CmxCell%20id%3D%225%22%20value%3D%22%26lt%3Bspan%20style%3D%26quot%3Bcolor%3A%20rgba(0%2C%200%2C%200%2C%200)%3B%20font-family%3A%20monospace%3B%20font-size%3A%200px%3B%20text-align%3A%20start%3B%20text-wrap-mode%3A%20nowrap%3B%26quot%3B%26gt%3B%253CmxGraphModel%253E%253Croot%253E%253CmxCell%2520id%253D%25220%2522%252F%253E%253CmxCell%2520id%253D%25221%2522%2520parent%253D%25220%2522%252F%253E%253CmxCell%2520id%253D%25222%2522%2520value%253D%2522%2522%2520style%253D%2522rounded%253D1%253BwhiteSpace%253Dwrap%253Bhtml%253D1%253BfillColor%253D%2523000000%253B%2522%2520vertex%253D%25221%2522%2520parent%253D%25221%2522%253E%253CmxGeometry%2520x%253D%25221490%2522%2520y%253D%2522590%2522%2520width%253D%252249.5%2522%2520height%253D%252247%2522%2520as%253D%2522geometry%2522%252F%253E%253C%252FmxCell%253E%253C%252Froot%253E%253C%252FmxGraphModel%253E%26lt%3B%2Fspan%26gt%3B%22%20style%3D%22rounded%3D1%3BwhiteSpace%3Dwrap%3Bhtml%3D1%3BfillColor%3D%23000000%3B%22%20vertex%3D%221%22%20parent%3D%224%22%3E%3CmxGeometry%20width%3D%2240.764705882352935%22%20height%3D%2238.71%22%20as%3D%22geometry%22%2F%3E%3C%2FmxCell%3E%3CmxCell%20id%3D%226%22%20value%3D%22%22%20style%3D%22rounded%3D1%3BwhiteSpace%3Dwrap%3Bhtml%3D1%3BfillColor%3D%23000000%3B%22%20vertex%3D%221%22%20parent%3D%224%22%3E%3CmxGeometry%20x%3D%2249.41176470588235%22%20width%3D%2240.764705882352935%22%20height%3D%2238.71%22%20as%3D%22geometry%22%2F%3E%3C%2FmxCell%3E%3CmxCell%20id%3D%227%22%20value%3D%22%22%20style%3D%22rounded%3D1%3BwhiteSpace%3Dwrap%3Bhtml%3D1%3BfillColor%3D%23000000%3B%22%20vertex%3D%221%22%20parent%3D%224%22%3E%3CmxGeometry%20x%3D%2299.23529411764706%22%20width%3D%2240.764705882352935%22%20height%3D%2238.71%22%20as%3D%22geometry%22%2F%3E%3C%2FmxCell%3E%3CmxCell%20id%3D%228%22%20value%3D%22%26lt%3Bspan%20style%3D%26quot%3Bcolor%3A%20rgba(0%2C%200%2C%200%2C%200)%3B%20font-family%3A%20monospace%3B%20font-size%3A%200px%3B%20text-align%3A%20start%3B%20text-wrap-mode%3A%20nowrap%3B%26quot%3B%26gt%3B%253CmxGraphModel%253E%253Croot%253E%253CmxCell%2520id%253D%25220%2522%252F%253E%253CmxCell%2520id%253D%25221%2522%2520parent%253D%25220%2522%252F%253E%253CmxCell%2520id%253D%25222%2522%2520value%253D%2522%2522%2520style%253D%2522rounded%253D1%253BwhiteSpace%253Dwrap%253Bhtml%253D1%253BfillColor%253D%2523000000%253B%2522%2520vertex%253D%25221%2522%2520parent%253D%25221%2522%253E%253CmxGeometry%2520x%253D%25221490%2522%2520y%253D%2522590%2522%2520width%253D%252249.5%2522%2520height%253D%252247%2522%2520as%253D%2522geometry%2522%252F%253E%253C%252FmxCell%253E%253C%252Froot%253E%253C%252FmxGraphModel%253E%26lt%3B%2Fspan%26gt%3B%22%20style%3D%22rounded%3D1%3BwhiteSpace%3Dwrap%3Bhtml%3D1%3BfillColor%3D%23000000%3B%22%20vertex%3D%221%22%20parent%3D%222%22%3E%3CmxGeometry%20x%3D%2230%22%20y%3D%2239%22%20width%3D%2240.76%22%20height%3D%2211%22%20as%3D%22geometry%22%2F%3E%3C%2FmxCell%3E%3CmxCell%20id%3D%229%22%20value%3D%22%22%20style%3D%22rounded%3D1%3BwhiteSpace%3Dwrap%3Bhtml%3D1%3B%22%20vertex%3D%221%22%20parent%3D%222%22%3E%3CmxGeometry%20x%3D%2230%22%20y%3D%22155%22%20width%3D%22140%22%20height%3D%2240%22%20as%3D%22geometry%22%2F%3E%3C%2FmxCell%3E%3C%2Froot%3E%3C%2FmxGraphModel%3E&lt;/span&gt;" style="rounded=1;whiteSpace=wrap;html=1;" vertex="1" parent="iueE4eXsbI2JWCtUVOEt-70">
          <mxGeometry x="30" y="265" width="140" height="40" as="geometry" />
        </mxCell>
        <mxCell id="iueE4eXsbI2JWCtUVOEt-120" value="" style="group" vertex="1" connectable="0" parent="iueE4eXsbI2JWCtUVOEt-70">
          <mxGeometry x="31" y="321" width="140" height="10" as="geometry" />
        </mxCell>
        <mxCell id="iueE4eXsbI2JWCtUVOEt-121" value="" style="rounded=0;whiteSpace=wrap;html=1;fillColor=#000000;" vertex="1" parent="iueE4eXsbI2JWCtUVOEt-120">
          <mxGeometry width="10" height="10" as="geometry" />
        </mxCell>
        <mxCell id="iueE4eXsbI2JWCtUVOEt-122" value="" style="rounded=0;whiteSpace=wrap;html=1;" vertex="1" parent="iueE4eXsbI2JWCtUVOEt-120">
          <mxGeometry x="43" width="10" height="10" as="geometry" />
        </mxCell>
        <mxCell id="iueE4eXsbI2JWCtUVOEt-123" value="" style="rounded=0;whiteSpace=wrap;html=1;" vertex="1" parent="iueE4eXsbI2JWCtUVOEt-120">
          <mxGeometry x="130" width="10" height="10" as="geometry" />
        </mxCell>
        <mxCell id="iueE4eXsbI2JWCtUVOEt-124" value="" style="rounded=0;whiteSpace=wrap;html=1;" vertex="1" parent="iueE4eXsbI2JWCtUVOEt-120">
          <mxGeometry x="88" width="10" height="10" as="geometry" />
        </mxCell>
        <mxCell id="iueE4eXsbI2JWCtUVOEt-126" value="" style="rounded=0;whiteSpace=wrap;html=1;fillColor=#000000;" vertex="1" parent="1">
          <mxGeometry x="1773" y="842" width="10" height="10" as="geometry" />
        </mxCell>
        <mxCell id="iueE4eXsbI2JWCtUVOEt-94" value="" style="rounded=1;whiteSpace=wrap;html=1;" vertex="1" parent="1">
          <mxGeometry x="1700" y="520" width="200" height="350" as="geometry" />
        </mxCell>
        <mxCell id="iueE4eXsbI2JWCtUVOEt-95" value="" style="group" vertex="1" connectable="0" parent="1">
          <mxGeometry x="1730" y="555" width="140" height="19" as="geometry" />
        </mxCell>
        <mxCell id="iueE4eXsbI2JWCtUVOEt-98" value="" style="rounded=1;whiteSpace=wrap;html=1;fillColor=#000000;" vertex="1" parent="iueE4eXsbI2JWCtUVOEt-95">
          <mxGeometry x="99.23529411764706" width="40.764705882352935" height="19" as="geometry" />
        </mxCell>
        <mxCell id="iueE4eXsbI2JWCtUVOEt-99" value="&lt;span style=&quot;color: rgba(0, 0, 0, 0); font-family: monospace; font-size: 0px; text-align: start; text-wrap-mode: nowrap;&quot;&gt;%3CmxGraphModel%3E%3Croot%3E%3CmxCell%20id%3D%220%22%2F%3E%3CmxCell%20id%3D%221%22%20parent%3D%220%22%2F%3E%3CmxCell%20id%3D%222%22%20value%3D%22%22%20style%3D%22rounded%3D1%3BwhiteSpace%3Dwrap%3Bhtml%3D1%3BfillColor%3D%23000000%3B%22%20vertex%3D%221%22%20parent%3D%221%22%3E%3CmxGeometry%20x%3D%221490%22%20y%3D%22590%22%20width%3D%2249.5%22%20height%3D%2247%22%20as%3D%22geometry%22%2F%3E%3C%2FmxCell%3E%3C%2Froot%3E%3C%2FmxGraphModel%3E&lt;/span&gt;" style="rounded=1;whiteSpace=wrap;html=1;fillColor=#000000;" vertex="1" parent="1">
          <mxGeometry x="1730" y="559" width="40.76" height="11" as="geometry" />
        </mxCell>
        <mxCell id="iueE4eXsbI2JWCtUVOEt-107" value="" style="group" vertex="1" connectable="0" parent="1">
          <mxGeometry x="1730" y="842" width="140" height="10" as="geometry" />
        </mxCell>
        <mxCell id="iueE4eXsbI2JWCtUVOEt-127" value="" style="group" vertex="1" connectable="0" parent="iueE4eXsbI2JWCtUVOEt-107">
          <mxGeometry width="140" height="10" as="geometry" />
        </mxCell>
        <mxCell id="iueE4eXsbI2JWCtUVOEt-104" value="" style="rounded=0;whiteSpace=wrap;html=1;" vertex="1" parent="iueE4eXsbI2JWCtUVOEt-127">
          <mxGeometry width="10" height="10" as="geometry" />
        </mxCell>
        <mxCell id="iueE4eXsbI2JWCtUVOEt-105" value="" style="rounded=0;whiteSpace=wrap;html=1;" vertex="1" parent="iueE4eXsbI2JWCtUVOEt-127">
          <mxGeometry x="130" width="10" height="10" as="geometry" />
        </mxCell>
        <mxCell id="iueE4eXsbI2JWCtUVOEt-148" value="" style="rounded=0;whiteSpace=wrap;html=1;" vertex="1" parent="iueE4eXsbI2JWCtUVOEt-127">
          <mxGeometry x="88" y="-1" width="10" height="10" as="geometry" />
        </mxCell>
        <mxCell id="iueE4eXsbI2JWCtUVOEt-134" value="" style="group" vertex="1" connectable="0" parent="1">
          <mxGeometry x="1730" y="633" width="140" height="54" as="geometry" />
        </mxCell>
        <mxCell id="iueE4eXsbI2JWCtUVOEt-100" value="&lt;span style=&quot;color: rgba(0, 0, 0, 0); font-family: monospace; font-size: 0px; text-align: start; text-wrap-mode: nowrap;&quot;&gt;%3CmxGraphModel%3E%3Croot%3E%3CmxCell%20id%3D%220%22%2F%3E%3CmxCell%20id%3D%221%22%20parent%3D%220%22%2F%3E%3CmxCell%20id%3D%222%22%20value%3D%22v%22%20style%3D%22group%22%20vertex%3D%221%22%20connectable%3D%220%22%20parent%3D%221%22%3E%3CmxGeometry%20x%3D%221400%22%20y%3D%22521%22%20width%3D%22200%22%20height%3D%22350%22%20as%3D%22geometry%22%2F%3E%3C%2FmxCell%3E%3CmxCell%20id%3D%223%22%20value%3D%22%22%20style%3D%22rounded%3D1%3BwhiteSpace%3Dwrap%3Bhtml%3D1%3B%22%20vertex%3D%221%22%20parent%3D%222%22%3E%3CmxGeometry%20width%3D%22200%22%20height%3D%22350%22%20as%3D%22geometry%22%2F%3E%3C%2FmxCell%3E%3CmxCell%20id%3D%224%22%20value%3D%22%22%20style%3D%22group%22%20vertex%3D%221%22%20connectable%3D%220%22%20parent%3D%222%22%3E%3CmxGeometry%20x%3D%2230%22%20y%3D%2299%22%20width%3D%22140%22%20height%3D%2238.71%22%20as%3D%22geometry%22%2F%3E%3C%2FmxCell%3E%3CmxCell%20id%3D%225%22%20value%3D%22%26lt%3Bspan%20style%3D%26quot%3Bcolor%3A%20rgba(0%2C%200%2C%200%2C%200)%3B%20font-family%3A%20monospace%3B%20font-size%3A%200px%3B%20text-align%3A%20start%3B%20text-wrap-mode%3A%20nowrap%3B%26quot%3B%26gt%3B%253CmxGraphModel%253E%253Croot%253E%253CmxCell%2520id%253D%25220%2522%252F%253E%253CmxCell%2520id%253D%25221%2522%2520parent%253D%25220%2522%252F%253E%253CmxCell%2520id%253D%25222%2522%2520value%253D%2522%2522%2520style%253D%2522rounded%253D1%253BwhiteSpace%253Dwrap%253Bhtml%253D1%253BfillColor%253D%2523000000%253B%2522%2520vertex%253D%25221%2522%2520parent%253D%25221%2522%253E%253CmxGeometry%2520x%253D%25221490%2522%2520y%253D%2522590%2522%2520width%253D%252249.5%2522%2520height%253D%252247%2522%2520as%253D%2522geometry%2522%252F%253E%253C%252FmxCell%253E%253C%252Froot%253E%253C%252FmxGraphModel%253E%26lt%3B%2Fspan%26gt%3B%22%20style%3D%22rounded%3D1%3BwhiteSpace%3Dwrap%3Bhtml%3D1%3BfillColor%3D%23000000%3B%22%20vertex%3D%221%22%20parent%3D%224%22%3E%3CmxGeometry%20width%3D%2240.764705882352935%22%20height%3D%2238.71%22%20as%3D%22geometry%22%2F%3E%3C%2FmxCell%3E%3CmxCell%20id%3D%226%22%20value%3D%22%22%20style%3D%22rounded%3D1%3BwhiteSpace%3Dwrap%3Bhtml%3D1%3BfillColor%3D%23000000%3B%22%20vertex%3D%221%22%20parent%3D%224%22%3E%3CmxGeometry%20x%3D%2249.41176470588235%22%20width%3D%2240.764705882352935%22%20height%3D%2238.71%22%20as%3D%22geometry%22%2F%3E%3C%2FmxCell%3E%3CmxCell%20id%3D%227%22%20value%3D%22%22%20style%3D%22rounded%3D1%3BwhiteSpace%3Dwrap%3Bhtml%3D1%3BfillColor%3D%23000000%3B%22%20vertex%3D%221%22%20parent%3D%224%22%3E%3CmxGeometry%20x%3D%2299.23529411764706%22%20width%3D%2240.764705882352935%22%20height%3D%2238.71%22%20as%3D%22geometry%22%2F%3E%3C%2FmxCell%3E%3CmxCell%20id%3D%228%22%20value%3D%22%26lt%3Bspan%20style%3D%26quot%3Bcolor%3A%20rgba(0%2C%200%2C%200%2C%200)%3B%20font-family%3A%20monospace%3B%20font-size%3A%200px%3B%20text-align%3A%20start%3B%20text-wrap-mode%3A%20nowrap%3B%26quot%3B%26gt%3B%253CmxGraphModel%253E%253Croot%253E%253CmxCell%2520id%253D%25220%2522%252F%253E%253CmxCell%2520id%253D%25221%2522%2520parent%253D%25220%2522%252F%253E%253CmxCell%2520id%253D%25222%2522%2520value%253D%2522%2522%2520style%253D%2522rounded%253D1%253BwhiteSpace%253Dwrap%253Bhtml%253D1%253BfillColor%253D%2523000000%253B%2522%2520vertex%253D%25221%2522%2520parent%253D%25221%2522%253E%253CmxGeometry%2520x%253D%25221490%2522%2520y%253D%2522590%2522%2520width%253D%252249.5%2522%2520height%253D%252247%2522%2520as%253D%2522geometry%2522%252F%253E%253C%252FmxCell%253E%253C%252Froot%253E%253C%252FmxGraphModel%253E%26lt%3B%2Fspan%26gt%3B%22%20style%3D%22rounded%3D1%3BwhiteSpace%3Dwrap%3Bhtml%3D1%3BfillColor%3D%23000000%3B%22%20vertex%3D%221%22%20parent%3D%222%22%3E%3CmxGeometry%20x%3D%2230%22%20y%3D%2239%22%20width%3D%2240.76%22%20height%3D%2211%22%20as%3D%22geometry%22%2F%3E%3C%2FmxCell%3E%3CmxCell%20id%3D%229%22%20value%3D%22%22%20style%3D%22rounded%3D1%3BwhiteSpace%3Dwrap%3Bhtml%3D1%3B%22%20vertex%3D%221%22%20parent%3D%222%22%3E%3CmxGeometry%20x%3D%2230%22%20y%3D%22155%22%20width%3D%22140%22%20height%3D%2240%22%20as%3D%22geometry%22%2F%3E%3C%2FmxCell%3E%3C%2Froot%3E%3C%2FmxGraphModel%3E&lt;/span&gt;" style="rounded=1;whiteSpace=wrap;html=1;" vertex="1" parent="iueE4eXsbI2JWCtUVOEt-134">
          <mxGeometry width="140" height="54" as="geometry" />
        </mxCell>
        <mxCell id="iueE4eXsbI2JWCtUVOEt-129" value="" style="rounded=1;whiteSpace=wrap;html=1;" vertex="1" parent="iueE4eXsbI2JWCtUVOEt-134">
          <mxGeometry x="6" y="6" width="47.11" height="41.5" as="geometry" />
        </mxCell>
        <mxCell id="iueE4eXsbI2JWCtUVOEt-131" value="" style="rounded=0;whiteSpace=wrap;html=1;" vertex="1" parent="iueE4eXsbI2JWCtUVOEt-134">
          <mxGeometry x="59" y="9" width="36" height="10" as="geometry" />
        </mxCell>
        <mxCell id="iueE4eXsbI2JWCtUVOEt-132" value="" style="rounded=0;whiteSpace=wrap;html=1;" vertex="1" parent="iueE4eXsbI2JWCtUVOEt-134">
          <mxGeometry x="59" y="23.25" width="28" height="7" as="geometry" />
        </mxCell>
        <mxCell id="iueE4eXsbI2JWCtUVOEt-133" value="" style="rounded=0;whiteSpace=wrap;html=1;" vertex="1" parent="iueE4eXsbI2JWCtUVOEt-134">
          <mxGeometry x="59" y="37" width="28" height="7" as="geometry" />
        </mxCell>
        <mxCell id="iueE4eXsbI2JWCtUVOEt-136" value="" style="group" vertex="1" connectable="0" parent="1">
          <mxGeometry x="1730" y="693" width="140" height="54" as="geometry" />
        </mxCell>
        <mxCell id="iueE4eXsbI2JWCtUVOEt-137" value="&lt;span style=&quot;color: rgba(0, 0, 0, 0); font-family: monospace; font-size: 0px; text-align: start; text-wrap-mode: nowrap;&quot;&gt;%3CmxGraphModel%3E%3Croot%3E%3CmxCell%20id%3D%220%22%2F%3E%3CmxCell%20id%3D%221%22%20parent%3D%220%22%2F%3E%3CmxCell%20id%3D%222%22%20value%3D%22v%22%20style%3D%22group%22%20vertex%3D%221%22%20connectable%3D%220%22%20parent%3D%221%22%3E%3CmxGeometry%20x%3D%221400%22%20y%3D%22521%22%20width%3D%22200%22%20height%3D%22350%22%20as%3D%22geometry%22%2F%3E%3C%2FmxCell%3E%3CmxCell%20id%3D%223%22%20value%3D%22%22%20style%3D%22rounded%3D1%3BwhiteSpace%3Dwrap%3Bhtml%3D1%3B%22%20vertex%3D%221%22%20parent%3D%222%22%3E%3CmxGeometry%20width%3D%22200%22%20height%3D%22350%22%20as%3D%22geometry%22%2F%3E%3C%2FmxCell%3E%3CmxCell%20id%3D%224%22%20value%3D%22%22%20style%3D%22group%22%20vertex%3D%221%22%20connectable%3D%220%22%20parent%3D%222%22%3E%3CmxGeometry%20x%3D%2230%22%20y%3D%2299%22%20width%3D%22140%22%20height%3D%2238.71%22%20as%3D%22geometry%22%2F%3E%3C%2FmxCell%3E%3CmxCell%20id%3D%225%22%20value%3D%22%26lt%3Bspan%20style%3D%26quot%3Bcolor%3A%20rgba(0%2C%200%2C%200%2C%200)%3B%20font-family%3A%20monospace%3B%20font-size%3A%200px%3B%20text-align%3A%20start%3B%20text-wrap-mode%3A%20nowrap%3B%26quot%3B%26gt%3B%253CmxGraphModel%253E%253Croot%253E%253CmxCell%2520id%253D%25220%2522%252F%253E%253CmxCell%2520id%253D%25221%2522%2520parent%253D%25220%2522%252F%253E%253CmxCell%2520id%253D%25222%2522%2520value%253D%2522%2522%2520style%253D%2522rounded%253D1%253BwhiteSpace%253Dwrap%253Bhtml%253D1%253BfillColor%253D%2523000000%253B%2522%2520vertex%253D%25221%2522%2520parent%253D%25221%2522%253E%253CmxGeometry%2520x%253D%25221490%2522%2520y%253D%2522590%2522%2520width%253D%252249.5%2522%2520height%253D%252247%2522%2520as%253D%2522geometry%2522%252F%253E%253C%252FmxCell%253E%253C%252Froot%253E%253C%252FmxGraphModel%253E%26lt%3B%2Fspan%26gt%3B%22%20style%3D%22rounded%3D1%3BwhiteSpace%3Dwrap%3Bhtml%3D1%3BfillColor%3D%23000000%3B%22%20vertex%3D%221%22%20parent%3D%224%22%3E%3CmxGeometry%20width%3D%2240.764705882352935%22%20height%3D%2238.71%22%20as%3D%22geometry%22%2F%3E%3C%2FmxCell%3E%3CmxCell%20id%3D%226%22%20value%3D%22%22%20style%3D%22rounded%3D1%3BwhiteSpace%3Dwrap%3Bhtml%3D1%3BfillColor%3D%23000000%3B%22%20vertex%3D%221%22%20parent%3D%224%22%3E%3CmxGeometry%20x%3D%2249.41176470588235%22%20width%3D%2240.764705882352935%22%20height%3D%2238.71%22%20as%3D%22geometry%22%2F%3E%3C%2FmxCell%3E%3CmxCell%20id%3D%227%22%20value%3D%22%22%20style%3D%22rounded%3D1%3BwhiteSpace%3Dwrap%3Bhtml%3D1%3BfillColor%3D%23000000%3B%22%20vertex%3D%221%22%20parent%3D%224%22%3E%3CmxGeometry%20x%3D%2299.23529411764706%22%20width%3D%2240.764705882352935%22%20height%3D%2238.71%22%20as%3D%22geometry%22%2F%3E%3C%2FmxCell%3E%3CmxCell%20id%3D%228%22%20value%3D%22%26lt%3Bspan%20style%3D%26quot%3Bcolor%3A%20rgba(0%2C%200%2C%200%2C%200)%3B%20font-family%3A%20monospace%3B%20font-size%3A%200px%3B%20text-align%3A%20start%3B%20text-wrap-mode%3A%20nowrap%3B%26quot%3B%26gt%3B%253CmxGraphModel%253E%253Croot%253E%253CmxCell%2520id%253D%25220%2522%252F%253E%253CmxCell%2520id%253D%25221%2522%2520parent%253D%25220%2522%252F%253E%253CmxCell%2520id%253D%25222%2522%2520value%253D%2522%2522%2520style%253D%2522rounded%253D1%253BwhiteSpace%253Dwrap%253Bhtml%253D1%253BfillColor%253D%2523000000%253B%2522%2520vertex%253D%25221%2522%2520parent%253D%25221%2522%253E%253CmxGeometry%2520x%253D%25221490%2522%2520y%253D%2522590%2522%2520width%253D%252249.5%2522%2520height%253D%252247%2522%2520as%253D%2522geometry%2522%252F%253E%253C%252FmxCell%253E%253C%252Froot%253E%253C%252FmxGraphModel%253E%26lt%3B%2Fspan%26gt%3B%22%20style%3D%22rounded%3D1%3BwhiteSpace%3Dwrap%3Bhtml%3D1%3BfillColor%3D%23000000%3B%22%20vertex%3D%221%22%20parent%3D%222%22%3E%3CmxGeometry%20x%3D%2230%22%20y%3D%2239%22%20width%3D%2240.76%22%20height%3D%2211%22%20as%3D%22geometry%22%2F%3E%3C%2FmxCell%3E%3CmxCell%20id%3D%229%22%20value%3D%22%22%20style%3D%22rounded%3D1%3BwhiteSpace%3Dwrap%3Bhtml%3D1%3B%22%20vertex%3D%221%22%20parent%3D%222%22%3E%3CmxGeometry%20x%3D%2230%22%20y%3D%22155%22%20width%3D%22140%22%20height%3D%2240%22%20as%3D%22geometry%22%2F%3E%3C%2FmxCell%3E%3C%2Froot%3E%3C%2FmxGraphModel%3E&lt;/span&gt;" style="rounded=1;whiteSpace=wrap;html=1;" vertex="1" parent="iueE4eXsbI2JWCtUVOEt-136">
          <mxGeometry width="140" height="54" as="geometry" />
        </mxCell>
        <mxCell id="iueE4eXsbI2JWCtUVOEt-138" value="" style="rounded=1;whiteSpace=wrap;html=1;" vertex="1" parent="iueE4eXsbI2JWCtUVOEt-136">
          <mxGeometry x="6" y="6" width="47.11" height="41.5" as="geometry" />
        </mxCell>
        <mxCell id="iueE4eXsbI2JWCtUVOEt-139" value="" style="rounded=0;whiteSpace=wrap;html=1;" vertex="1" parent="iueE4eXsbI2JWCtUVOEt-136">
          <mxGeometry x="59" y="9" width="36" height="10" as="geometry" />
        </mxCell>
        <mxCell id="iueE4eXsbI2JWCtUVOEt-140" value="" style="rounded=0;whiteSpace=wrap;html=1;" vertex="1" parent="iueE4eXsbI2JWCtUVOEt-136">
          <mxGeometry x="59" y="23.25" width="28" height="7" as="geometry" />
        </mxCell>
        <mxCell id="iueE4eXsbI2JWCtUVOEt-141" value="" style="rounded=0;whiteSpace=wrap;html=1;" vertex="1" parent="iueE4eXsbI2JWCtUVOEt-136">
          <mxGeometry x="59" y="37" width="28" height="7" as="geometry" />
        </mxCell>
        <mxCell id="iueE4eXsbI2JWCtUVOEt-142" value="" style="group" vertex="1" connectable="0" parent="1">
          <mxGeometry x="1729" y="752" width="140" height="54" as="geometry" />
        </mxCell>
        <mxCell id="iueE4eXsbI2JWCtUVOEt-143" value="&lt;span style=&quot;color: rgba(0, 0, 0, 0); font-family: monospace; font-size: 0px; text-align: start; text-wrap-mode: nowrap;&quot;&gt;%3CmxGraphModel%3E%3Croot%3E%3CmxCell%20id%3D%220%22%2F%3E%3CmxCell%20id%3D%221%22%20parent%3D%220%22%2F%3E%3CmxCell%20id%3D%222%22%20value%3D%22v%22%20style%3D%22group%22%20vertex%3D%221%22%20connectable%3D%220%22%20parent%3D%221%22%3E%3CmxGeometry%20x%3D%221400%22%20y%3D%22521%22%20width%3D%22200%22%20height%3D%22350%22%20as%3D%22geometry%22%2F%3E%3C%2FmxCell%3E%3CmxCell%20id%3D%223%22%20value%3D%22%22%20style%3D%22rounded%3D1%3BwhiteSpace%3Dwrap%3Bhtml%3D1%3B%22%20vertex%3D%221%22%20parent%3D%222%22%3E%3CmxGeometry%20width%3D%22200%22%20height%3D%22350%22%20as%3D%22geometry%22%2F%3E%3C%2FmxCell%3E%3CmxCell%20id%3D%224%22%20value%3D%22%22%20style%3D%22group%22%20vertex%3D%221%22%20connectable%3D%220%22%20parent%3D%222%22%3E%3CmxGeometry%20x%3D%2230%22%20y%3D%2299%22%20width%3D%22140%22%20height%3D%2238.71%22%20as%3D%22geometry%22%2F%3E%3C%2FmxCell%3E%3CmxCell%20id%3D%225%22%20value%3D%22%26lt%3Bspan%20style%3D%26quot%3Bcolor%3A%20rgba(0%2C%200%2C%200%2C%200)%3B%20font-family%3A%20monospace%3B%20font-size%3A%200px%3B%20text-align%3A%20start%3B%20text-wrap-mode%3A%20nowrap%3B%26quot%3B%26gt%3B%253CmxGraphModel%253E%253Croot%253E%253CmxCell%2520id%253D%25220%2522%252F%253E%253CmxCell%2520id%253D%25221%2522%2520parent%253D%25220%2522%252F%253E%253CmxCell%2520id%253D%25222%2522%2520value%253D%2522%2522%2520style%253D%2522rounded%253D1%253BwhiteSpace%253Dwrap%253Bhtml%253D1%253BfillColor%253D%2523000000%253B%2522%2520vertex%253D%25221%2522%2520parent%253D%25221%2522%253E%253CmxGeometry%2520x%253D%25221490%2522%2520y%253D%2522590%2522%2520width%253D%252249.5%2522%2520height%253D%252247%2522%2520as%253D%2522geometry%2522%252F%253E%253C%252FmxCell%253E%253C%252Froot%253E%253C%252FmxGraphModel%253E%26lt%3B%2Fspan%26gt%3B%22%20style%3D%22rounded%3D1%3BwhiteSpace%3Dwrap%3Bhtml%3D1%3BfillColor%3D%23000000%3B%22%20vertex%3D%221%22%20parent%3D%224%22%3E%3CmxGeometry%20width%3D%2240.764705882352935%22%20height%3D%2238.71%22%20as%3D%22geometry%22%2F%3E%3C%2FmxCell%3E%3CmxCell%20id%3D%226%22%20value%3D%22%22%20style%3D%22rounded%3D1%3BwhiteSpace%3Dwrap%3Bhtml%3D1%3BfillColor%3D%23000000%3B%22%20vertex%3D%221%22%20parent%3D%224%22%3E%3CmxGeometry%20x%3D%2249.41176470588235%22%20width%3D%2240.764705882352935%22%20height%3D%2238.71%22%20as%3D%22geometry%22%2F%3E%3C%2FmxCell%3E%3CmxCell%20id%3D%227%22%20value%3D%22%22%20style%3D%22rounded%3D1%3BwhiteSpace%3Dwrap%3Bhtml%3D1%3BfillColor%3D%23000000%3B%22%20vertex%3D%221%22%20parent%3D%224%22%3E%3CmxGeometry%20x%3D%2299.23529411764706%22%20width%3D%2240.764705882352935%22%20height%3D%2238.71%22%20as%3D%22geometry%22%2F%3E%3C%2FmxCell%3E%3CmxCell%20id%3D%228%22%20value%3D%22%26lt%3Bspan%20style%3D%26quot%3Bcolor%3A%20rgba(0%2C%200%2C%200%2C%200)%3B%20font-family%3A%20monospace%3B%20font-size%3A%200px%3B%20text-align%3A%20start%3B%20text-wrap-mode%3A%20nowrap%3B%26quot%3B%26gt%3B%253CmxGraphModel%253E%253Croot%253E%253CmxCell%2520id%253D%25220%2522%252F%253E%253CmxCell%2520id%253D%25221%2522%2520parent%253D%25220%2522%252F%253E%253CmxCell%2520id%253D%25222%2522%2520value%253D%2522%2522%2520style%253D%2522rounded%253D1%253BwhiteSpace%253Dwrap%253Bhtml%253D1%253BfillColor%253D%2523000000%253B%2522%2520vertex%253D%25221%2522%2520parent%253D%25221%2522%253E%253CmxGeometry%2520x%253D%25221490%2522%2520y%253D%2522590%2522%2520width%253D%252249.5%2522%2520height%253D%252247%2522%2520as%253D%2522geometry%2522%252F%253E%253C%252FmxCell%253E%253C%252Froot%253E%253C%252FmxGraphModel%253E%26lt%3B%2Fspan%26gt%3B%22%20style%3D%22rounded%3D1%3BwhiteSpace%3Dwrap%3Bhtml%3D1%3BfillColor%3D%23000000%3B%22%20vertex%3D%221%22%20parent%3D%222%22%3E%3CmxGeometry%20x%3D%2230%22%20y%3D%2239%22%20width%3D%2240.76%22%20height%3D%2211%22%20as%3D%22geometry%22%2F%3E%3C%2FmxCell%3E%3CmxCell%20id%3D%229%22%20value%3D%22%22%20style%3D%22rounded%3D1%3BwhiteSpace%3Dwrap%3Bhtml%3D1%3B%22%20vertex%3D%221%22%20parent%3D%222%22%3E%3CmxGeometry%20x%3D%2230%22%20y%3D%22155%22%20width%3D%22140%22%20height%3D%2240%22%20as%3D%22geometry%22%2F%3E%3C%2FmxCell%3E%3C%2Froot%3E%3C%2FmxGraphModel%3E&lt;/span&gt;" style="rounded=1;whiteSpace=wrap;html=1;" vertex="1" parent="iueE4eXsbI2JWCtUVOEt-142">
          <mxGeometry width="140" height="54" as="geometry" />
        </mxCell>
        <mxCell id="iueE4eXsbI2JWCtUVOEt-144" value="" style="rounded=1;whiteSpace=wrap;html=1;" vertex="1" parent="iueE4eXsbI2JWCtUVOEt-142">
          <mxGeometry x="6" y="6" width="47.11" height="41.5" as="geometry" />
        </mxCell>
        <mxCell id="iueE4eXsbI2JWCtUVOEt-145" value="" style="rounded=0;whiteSpace=wrap;html=1;" vertex="1" parent="iueE4eXsbI2JWCtUVOEt-142">
          <mxGeometry x="59" y="9" width="36" height="10" as="geometry" />
        </mxCell>
        <mxCell id="iueE4eXsbI2JWCtUVOEt-146" value="" style="rounded=0;whiteSpace=wrap;html=1;" vertex="1" parent="iueE4eXsbI2JWCtUVOEt-142">
          <mxGeometry x="59" y="23.25" width="28" height="7" as="geometry" />
        </mxCell>
        <mxCell id="iueE4eXsbI2JWCtUVOEt-147" value="" style="rounded=0;whiteSpace=wrap;html=1;" vertex="1" parent="iueE4eXsbI2JWCtUVOEt-142">
          <mxGeometry x="59" y="37" width="28" height="7" as="geometry" />
        </mxCell>
        <mxCell id="iueE4eXsbI2JWCtUVOEt-152" value="" style="rounded=0;whiteSpace=wrap;html=1;fillColor=#000000;" vertex="1" parent="1">
          <mxGeometry x="2049" y="844" width="10" height="10" as="geometry" />
        </mxCell>
        <mxCell id="iueE4eXsbI2JWCtUVOEt-153" value="" style="rounded=1;whiteSpace=wrap;html=1;" vertex="1" parent="1">
          <mxGeometry x="1976" y="522" width="200" height="350" as="geometry" />
        </mxCell>
        <mxCell id="iueE4eXsbI2JWCtUVOEt-154" value="" style="group" vertex="1" connectable="0" parent="1">
          <mxGeometry x="2006" y="572" width="140" height="19" as="geometry" />
        </mxCell>
        <mxCell id="iueE4eXsbI2JWCtUVOEt-155" value="" style="rounded=1;whiteSpace=wrap;html=1;fillColor=#000000;" vertex="1" parent="iueE4eXsbI2JWCtUVOEt-154">
          <mxGeometry x="99.23529411764706" width="40.764705882352935" height="19" as="geometry" />
        </mxCell>
        <mxCell id="iueE4eXsbI2JWCtUVOEt-156" value="&lt;span style=&quot;color: rgba(0, 0, 0, 0); font-family: monospace; font-size: 0px; text-align: start; text-wrap-mode: nowrap;&quot;&gt;%3CmxGraphModel%3E%3Croot%3E%3CmxCell%20id%3D%220%22%2F%3E%3CmxCell%20id%3D%221%22%20parent%3D%220%22%2F%3E%3CmxCell%20id%3D%222%22%20value%3D%22%22%20style%3D%22rounded%3D1%3BwhiteSpace%3Dwrap%3Bhtml%3D1%3BfillColor%3D%23000000%3B%22%20vertex%3D%221%22%20parent%3D%221%22%3E%3CmxGeometry%20x%3D%221490%22%20y%3D%22590%22%20width%3D%2249.5%22%20height%3D%2247%22%20as%3D%22geometry%22%2F%3E%3C%2FmxCell%3E%3C%2Froot%3E%3C%2FmxGraphModel%3E&lt;/span&gt;" style="rounded=1;whiteSpace=wrap;html=1;fillColor=#000000;" vertex="1" parent="iueE4eXsbI2JWCtUVOEt-154">
          <mxGeometry y="3.8500000000000227" width="40.76" height="11" as="geometry" />
        </mxCell>
        <mxCell id="iueE4eXsbI2JWCtUVOEt-157" value="" style="group" vertex="1" connectable="0" parent="1">
          <mxGeometry x="2006" y="844" width="140" height="10" as="geometry" />
        </mxCell>
        <mxCell id="iueE4eXsbI2JWCtUVOEt-158" value="" style="group" vertex="1" connectable="0" parent="iueE4eXsbI2JWCtUVOEt-157">
          <mxGeometry width="140" height="10" as="geometry" />
        </mxCell>
        <mxCell id="iueE4eXsbI2JWCtUVOEt-159" value="" style="rounded=0;whiteSpace=wrap;html=1;" vertex="1" parent="iueE4eXsbI2JWCtUVOEt-158">
          <mxGeometry width="10" height="10" as="geometry" />
        </mxCell>
        <mxCell id="iueE4eXsbI2JWCtUVOEt-160" value="" style="rounded=0;whiteSpace=wrap;html=1;" vertex="1" parent="iueE4eXsbI2JWCtUVOEt-158">
          <mxGeometry x="130" width="10" height="10" as="geometry" />
        </mxCell>
        <mxCell id="iueE4eXsbI2JWCtUVOEt-161" value="" style="rounded=0;whiteSpace=wrap;html=1;" vertex="1" parent="iueE4eXsbI2JWCtUVOEt-158">
          <mxGeometry x="42" y="-1" width="10" height="10" as="geometry" />
        </mxCell>
        <mxCell id="iueE4eXsbI2JWCtUVOEt-180" value="" style="rounded=1;whiteSpace=wrap;html=1;fillColor=#000000;" vertex="1" parent="1">
          <mxGeometry x="2093" y="843" width="10.9" height="11" as="geometry" />
        </mxCell>
        <mxCell id="iueE4eXsbI2JWCtUVOEt-181" value="" style="rounded=1;whiteSpace=wrap;html=1;fillColor=#000000;" vertex="1" parent="1">
          <mxGeometry x="1772.55" y="840.5" width="10.9" height="11" as="geometry" />
        </mxCell>
        <mxCell id="iueE4eXsbI2JWCtUVOEt-183" value="" style="group" vertex="1" connectable="0" parent="1">
          <mxGeometry x="2006" y="787" width="140" height="29" as="geometry" />
        </mxCell>
        <mxCell id="iueE4eXsbI2JWCtUVOEt-169" value="&lt;span style=&quot;color: rgba(0, 0, 0, 0); font-family: monospace; font-size: 0px; text-align: start; text-wrap-mode: nowrap;&quot;&gt;%3CmxGraphModel%3E%3Croot%3E%3CmxCell%20id%3D%220%22%2F%3E%3CmxCell%20id%3D%221%22%20parent%3D%220%22%2F%3E%3CmxCell%20id%3D%222%22%20value%3D%22v%22%20style%3D%22group%22%20vertex%3D%221%22%20connectable%3D%220%22%20parent%3D%221%22%3E%3CmxGeometry%20x%3D%221400%22%20y%3D%22521%22%20width%3D%22200%22%20height%3D%22350%22%20as%3D%22geometry%22%2F%3E%3C%2FmxCell%3E%3CmxCell%20id%3D%223%22%20value%3D%22%22%20style%3D%22rounded%3D1%3BwhiteSpace%3Dwrap%3Bhtml%3D1%3B%22%20vertex%3D%221%22%20parent%3D%222%22%3E%3CmxGeometry%20width%3D%22200%22%20height%3D%22350%22%20as%3D%22geometry%22%2F%3E%3C%2FmxCell%3E%3CmxCell%20id%3D%224%22%20value%3D%22%22%20style%3D%22group%22%20vertex%3D%221%22%20connectable%3D%220%22%20parent%3D%222%22%3E%3CmxGeometry%20x%3D%2230%22%20y%3D%2299%22%20width%3D%22140%22%20height%3D%2238.71%22%20as%3D%22geometry%22%2F%3E%3C%2FmxCell%3E%3CmxCell%20id%3D%225%22%20value%3D%22%26lt%3Bspan%20style%3D%26quot%3Bcolor%3A%20rgba(0%2C%200%2C%200%2C%200)%3B%20font-family%3A%20monospace%3B%20font-size%3A%200px%3B%20text-align%3A%20start%3B%20text-wrap-mode%3A%20nowrap%3B%26quot%3B%26gt%3B%253CmxGraphModel%253E%253Croot%253E%253CmxCell%2520id%253D%25220%2522%252F%253E%253CmxCell%2520id%253D%25221%2522%2520parent%253D%25220%2522%252F%253E%253CmxCell%2520id%253D%25222%2522%2520value%253D%2522%2522%2520style%253D%2522rounded%253D1%253BwhiteSpace%253Dwrap%253Bhtml%253D1%253BfillColor%253D%2523000000%253B%2522%2520vertex%253D%25221%2522%2520parent%253D%25221%2522%253E%253CmxGeometry%2520x%253D%25221490%2522%2520y%253D%2522590%2522%2520width%253D%252249.5%2522%2520height%253D%252247%2522%2520as%253D%2522geometry%2522%252F%253E%253C%252FmxCell%253E%253C%252Froot%253E%253C%252FmxGraphModel%253E%26lt%3B%2Fspan%26gt%3B%22%20style%3D%22rounded%3D1%3BwhiteSpace%3Dwrap%3Bhtml%3D1%3BfillColor%3D%23000000%3B%22%20vertex%3D%221%22%20parent%3D%224%22%3E%3CmxGeometry%20width%3D%2240.764705882352935%22%20height%3D%2238.71%22%20as%3D%22geometry%22%2F%3E%3C%2FmxCell%3E%3CmxCell%20id%3D%226%22%20value%3D%22%22%20style%3D%22rounded%3D1%3BwhiteSpace%3Dwrap%3Bhtml%3D1%3BfillColor%3D%23000000%3B%22%20vertex%3D%221%22%20parent%3D%224%22%3E%3CmxGeometry%20x%3D%2249.41176470588235%22%20width%3D%2240.764705882352935%22%20height%3D%2238.71%22%20as%3D%22geometry%22%2F%3E%3C%2FmxCell%3E%3CmxCell%20id%3D%227%22%20value%3D%22%22%20style%3D%22rounded%3D1%3BwhiteSpace%3Dwrap%3Bhtml%3D1%3BfillColor%3D%23000000%3B%22%20vertex%3D%221%22%20parent%3D%224%22%3E%3CmxGeometry%20x%3D%2299.23529411764706%22%20width%3D%2240.764705882352935%22%20height%3D%2238.71%22%20as%3D%22geometry%22%2F%3E%3C%2FmxCell%3E%3CmxCell%20id%3D%228%22%20value%3D%22%26lt%3Bspan%20style%3D%26quot%3Bcolor%3A%20rgba(0%2C%200%2C%200%2C%200)%3B%20font-family%3A%20monospace%3B%20font-size%3A%200px%3B%20text-align%3A%20start%3B%20text-wrap-mode%3A%20nowrap%3B%26quot%3B%26gt%3B%253CmxGraphModel%253E%253Croot%253E%253CmxCell%2520id%253D%25220%2522%252F%253E%253CmxCell%2520id%253D%25221%2522%2520parent%253D%25220%2522%252F%253E%253CmxCell%2520id%253D%25222%2522%2520value%253D%2522%2522%2520style%253D%2522rounded%253D1%253BwhiteSpace%253Dwrap%253Bhtml%253D1%253BfillColor%253D%2523000000%253B%2522%2520vertex%253D%25221%2522%2520parent%253D%25221%2522%253E%253CmxGeometry%2520x%253D%25221490%2522%2520y%253D%2522590%2522%2520width%253D%252249.5%2522%2520height%253D%252247%2522%2520as%253D%2522geometry%2522%252F%253E%253C%252FmxCell%253E%253C%252Froot%253E%253C%252FmxGraphModel%253E%26lt%3B%2Fspan%26gt%3B%22%20style%3D%22rounded%3D1%3BwhiteSpace%3Dwrap%3Bhtml%3D1%3BfillColor%3D%23000000%3B%22%20vertex%3D%221%22%20parent%3D%222%22%3E%3CmxGeometry%20x%3D%2230%22%20y%3D%2239%22%20width%3D%2240.76%22%20height%3D%2211%22%20as%3D%22geometry%22%2F%3E%3C%2FmxCell%3E%3CmxCell%20id%3D%229%22%20value%3D%22%22%20style%3D%22rounded%3D1%3BwhiteSpace%3Dwrap%3Bhtml%3D1%3B%22%20vertex%3D%221%22%20parent%3D%222%22%3E%3CmxGeometry%20x%3D%2230%22%20y%3D%22155%22%20width%3D%22140%22%20height%3D%2240%22%20as%3D%22geometry%22%2F%3E%3C%2FmxCell%3E%3C%2Froot%3E%3C%2FmxGraphModel%3E&lt;/span&gt;" style="rounded=1;whiteSpace=wrap;html=1;" vertex="1" parent="iueE4eXsbI2JWCtUVOEt-183">
          <mxGeometry width="140" height="29" as="geometry" />
        </mxCell>
        <mxCell id="iueE4eXsbI2JWCtUVOEt-171" value="" style="rounded=0;whiteSpace=wrap;html=1;" vertex="1" parent="iueE4eXsbI2JWCtUVOEt-183">
          <mxGeometry x="8" y="9" width="36" height="10" as="geometry" />
        </mxCell>
        <mxCell id="iueE4eXsbI2JWCtUVOEt-182" value="" style="rounded=0;whiteSpace=wrap;html=1;" vertex="1" parent="iueE4eXsbI2JWCtUVOEt-183">
          <mxGeometry x="56" y="9.5" width="74" height="10" as="geometry" />
        </mxCell>
        <mxCell id="iueE4eXsbI2JWCtUVOEt-184" value="" style="group" vertex="1" connectable="0" parent="1">
          <mxGeometry x="2005" y="676" width="140" height="29" as="geometry" />
        </mxCell>
        <mxCell id="iueE4eXsbI2JWCtUVOEt-185" value="&lt;span style=&quot;color: rgba(0, 0, 0, 0); font-family: monospace; font-size: 0px; text-align: start; text-wrap-mode: nowrap;&quot;&gt;%3CmxGraphModel%3E%3Croot%3E%3CmxCell%20id%3D%220%22%2F%3E%3CmxCell%20id%3D%221%22%20parent%3D%220%22%2F%3E%3CmxCell%20id%3D%222%22%20value%3D%22v%22%20style%3D%22group%22%20vertex%3D%221%22%20connectable%3D%220%22%20parent%3D%221%22%3E%3CmxGeometry%20x%3D%221400%22%20y%3D%22521%22%20width%3D%22200%22%20height%3D%22350%22%20as%3D%22geometry%22%2F%3E%3C%2FmxCell%3E%3CmxCell%20id%3D%223%22%20value%3D%22%22%20style%3D%22rounded%3D1%3BwhiteSpace%3Dwrap%3Bhtml%3D1%3B%22%20vertex%3D%221%22%20parent%3D%222%22%3E%3CmxGeometry%20width%3D%22200%22%20height%3D%22350%22%20as%3D%22geometry%22%2F%3E%3C%2FmxCell%3E%3CmxCell%20id%3D%224%22%20value%3D%22%22%20style%3D%22group%22%20vertex%3D%221%22%20connectable%3D%220%22%20parent%3D%222%22%3E%3CmxGeometry%20x%3D%2230%22%20y%3D%2299%22%20width%3D%22140%22%20height%3D%2238.71%22%20as%3D%22geometry%22%2F%3E%3C%2FmxCell%3E%3CmxCell%20id%3D%225%22%20value%3D%22%26lt%3Bspan%20style%3D%26quot%3Bcolor%3A%20rgba(0%2C%200%2C%200%2C%200)%3B%20font-family%3A%20monospace%3B%20font-size%3A%200px%3B%20text-align%3A%20start%3B%20text-wrap-mode%3A%20nowrap%3B%26quot%3B%26gt%3B%253CmxGraphModel%253E%253Croot%253E%253CmxCell%2520id%253D%25220%2522%252F%253E%253CmxCell%2520id%253D%25221%2522%2520parent%253D%25220%2522%252F%253E%253CmxCell%2520id%253D%25222%2522%2520value%253D%2522%2522%2520style%253D%2522rounded%253D1%253BwhiteSpace%253Dwrap%253Bhtml%253D1%253BfillColor%253D%2523000000%253B%2522%2520vertex%253D%25221%2522%2520parent%253D%25221%2522%253E%253CmxGeometry%2520x%253D%25221490%2522%2520y%253D%2522590%2522%2520width%253D%252249.5%2522%2520height%253D%252247%2522%2520as%253D%2522geometry%2522%252F%253E%253C%252FmxCell%253E%253C%252Froot%253E%253C%252FmxGraphModel%253E%26lt%3B%2Fspan%26gt%3B%22%20style%3D%22rounded%3D1%3BwhiteSpace%3Dwrap%3Bhtml%3D1%3BfillColor%3D%23000000%3B%22%20vertex%3D%221%22%20parent%3D%224%22%3E%3CmxGeometry%20width%3D%2240.764705882352935%22%20height%3D%2238.71%22%20as%3D%22geometry%22%2F%3E%3C%2FmxCell%3E%3CmxCell%20id%3D%226%22%20value%3D%22%22%20style%3D%22rounded%3D1%3BwhiteSpace%3Dwrap%3Bhtml%3D1%3BfillColor%3D%23000000%3B%22%20vertex%3D%221%22%20parent%3D%224%22%3E%3CmxGeometry%20x%3D%2249.41176470588235%22%20width%3D%2240.764705882352935%22%20height%3D%2238.71%22%20as%3D%22geometry%22%2F%3E%3C%2FmxCell%3E%3CmxCell%20id%3D%227%22%20value%3D%22%22%20style%3D%22rounded%3D1%3BwhiteSpace%3Dwrap%3Bhtml%3D1%3BfillColor%3D%23000000%3B%22%20vertex%3D%221%22%20parent%3D%224%22%3E%3CmxGeometry%20x%3D%2299.23529411764706%22%20width%3D%2240.764705882352935%22%20height%3D%2238.71%22%20as%3D%22geometry%22%2F%3E%3C%2FmxCell%3E%3CmxCell%20id%3D%228%22%20value%3D%22%26lt%3Bspan%20style%3D%26quot%3Bcolor%3A%20rgba(0%2C%200%2C%200%2C%200)%3B%20font-family%3A%20monospace%3B%20font-size%3A%200px%3B%20text-align%3A%20start%3B%20text-wrap-mode%3A%20nowrap%3B%26quot%3B%26gt%3B%253CmxGraphModel%253E%253Croot%253E%253CmxCell%2520id%253D%25220%2522%252F%253E%253CmxCell%2520id%253D%25221%2522%2520parent%253D%25220%2522%252F%253E%253CmxCell%2520id%253D%25222%2522%2520value%253D%2522%2522%2520style%253D%2522rounded%253D1%253BwhiteSpace%253Dwrap%253Bhtml%253D1%253BfillColor%253D%2523000000%253B%2522%2520vertex%253D%25221%2522%2520parent%253D%25221%2522%253E%253CmxGeometry%2520x%253D%25221490%2522%2520y%253D%2522590%2522%2520width%253D%252249.5%2522%2520height%253D%252247%2522%2520as%253D%2522geometry%2522%252F%253E%253C%252FmxCell%253E%253C%252Froot%253E%253C%252FmxGraphModel%253E%26lt%3B%2Fspan%26gt%3B%22%20style%3D%22rounded%3D1%3BwhiteSpace%3Dwrap%3Bhtml%3D1%3BfillColor%3D%23000000%3B%22%20vertex%3D%221%22%20parent%3D%222%22%3E%3CmxGeometry%20x%3D%2230%22%20y%3D%2239%22%20width%3D%2240.76%22%20height%3D%2211%22%20as%3D%22geometry%22%2F%3E%3C%2FmxCell%3E%3CmxCell%20id%3D%229%22%20value%3D%22%22%20style%3D%22rounded%3D1%3BwhiteSpace%3Dwrap%3Bhtml%3D1%3B%22%20vertex%3D%221%22%20parent%3D%222%22%3E%3CmxGeometry%20x%3D%2230%22%20y%3D%22155%22%20width%3D%22140%22%20height%3D%2240%22%20as%3D%22geometry%22%2F%3E%3C%2FmxCell%3E%3C%2Froot%3E%3C%2FmxGraphModel%3E&lt;/span&gt;" style="rounded=1;whiteSpace=wrap;html=1;" vertex="1" parent="iueE4eXsbI2JWCtUVOEt-184">
          <mxGeometry width="140" height="29" as="geometry" />
        </mxCell>
        <mxCell id="iueE4eXsbI2JWCtUVOEt-186" value="" style="rounded=0;whiteSpace=wrap;html=1;" vertex="1" parent="iueE4eXsbI2JWCtUVOEt-184">
          <mxGeometry x="8" y="9" width="36" height="10" as="geometry" />
        </mxCell>
        <mxCell id="iueE4eXsbI2JWCtUVOEt-187" value="" style="rounded=0;whiteSpace=wrap;html=1;" vertex="1" parent="iueE4eXsbI2JWCtUVOEt-184">
          <mxGeometry x="56" y="9.5" width="74" height="10" as="geometry" />
        </mxCell>
        <mxCell id="iueE4eXsbI2JWCtUVOEt-188" value="" style="group" vertex="1" connectable="0" parent="1">
          <mxGeometry x="2005" y="713" width="140" height="29" as="geometry" />
        </mxCell>
        <mxCell id="iueE4eXsbI2JWCtUVOEt-189" value="&lt;span style=&quot;color: rgba(0, 0, 0, 0); font-family: monospace; font-size: 0px; text-align: start; text-wrap-mode: nowrap;&quot;&gt;%3CmxGraphModel%3E%3Croot%3E%3CmxCell%20id%3D%220%22%2F%3E%3CmxCell%20id%3D%221%22%20parent%3D%220%22%2F%3E%3CmxCell%20id%3D%222%22%20value%3D%22v%22%20style%3D%22group%22%20vertex%3D%221%22%20connectable%3D%220%22%20parent%3D%221%22%3E%3CmxGeometry%20x%3D%221400%22%20y%3D%22521%22%20width%3D%22200%22%20height%3D%22350%22%20as%3D%22geometry%22%2F%3E%3C%2FmxCell%3E%3CmxCell%20id%3D%223%22%20value%3D%22%22%20style%3D%22rounded%3D1%3BwhiteSpace%3Dwrap%3Bhtml%3D1%3B%22%20vertex%3D%221%22%20parent%3D%222%22%3E%3CmxGeometry%20width%3D%22200%22%20height%3D%22350%22%20as%3D%22geometry%22%2F%3E%3C%2FmxCell%3E%3CmxCell%20id%3D%224%22%20value%3D%22%22%20style%3D%22group%22%20vertex%3D%221%22%20connectable%3D%220%22%20parent%3D%222%22%3E%3CmxGeometry%20x%3D%2230%22%20y%3D%2299%22%20width%3D%22140%22%20height%3D%2238.71%22%20as%3D%22geometry%22%2F%3E%3C%2FmxCell%3E%3CmxCell%20id%3D%225%22%20value%3D%22%26lt%3Bspan%20style%3D%26quot%3Bcolor%3A%20rgba(0%2C%200%2C%200%2C%200)%3B%20font-family%3A%20monospace%3B%20font-size%3A%200px%3B%20text-align%3A%20start%3B%20text-wrap-mode%3A%20nowrap%3B%26quot%3B%26gt%3B%253CmxGraphModel%253E%253Croot%253E%253CmxCell%2520id%253D%25220%2522%252F%253E%253CmxCell%2520id%253D%25221%2522%2520parent%253D%25220%2522%252F%253E%253CmxCell%2520id%253D%25222%2522%2520value%253D%2522%2522%2520style%253D%2522rounded%253D1%253BwhiteSpace%253Dwrap%253Bhtml%253D1%253BfillColor%253D%2523000000%253B%2522%2520vertex%253D%25221%2522%2520parent%253D%25221%2522%253E%253CmxGeometry%2520x%253D%25221490%2522%2520y%253D%2522590%2522%2520width%253D%252249.5%2522%2520height%253D%252247%2522%2520as%253D%2522geometry%2522%252F%253E%253C%252FmxCell%253E%253C%252Froot%253E%253C%252FmxGraphModel%253E%26lt%3B%2Fspan%26gt%3B%22%20style%3D%22rounded%3D1%3BwhiteSpace%3Dwrap%3Bhtml%3D1%3BfillColor%3D%23000000%3B%22%20vertex%3D%221%22%20parent%3D%224%22%3E%3CmxGeometry%20width%3D%2240.764705882352935%22%20height%3D%2238.71%22%20as%3D%22geometry%22%2F%3E%3C%2FmxCell%3E%3CmxCell%20id%3D%226%22%20value%3D%22%22%20style%3D%22rounded%3D1%3BwhiteSpace%3Dwrap%3Bhtml%3D1%3BfillColor%3D%23000000%3B%22%20vertex%3D%221%22%20parent%3D%224%22%3E%3CmxGeometry%20x%3D%2249.41176470588235%22%20width%3D%2240.764705882352935%22%20height%3D%2238.71%22%20as%3D%22geometry%22%2F%3E%3C%2FmxCell%3E%3CmxCell%20id%3D%227%22%20value%3D%22%22%20style%3D%22rounded%3D1%3BwhiteSpace%3Dwrap%3Bhtml%3D1%3BfillColor%3D%23000000%3B%22%20vertex%3D%221%22%20parent%3D%224%22%3E%3CmxGeometry%20x%3D%2299.23529411764706%22%20width%3D%2240.764705882352935%22%20height%3D%2238.71%22%20as%3D%22geometry%22%2F%3E%3C%2FmxCell%3E%3CmxCell%20id%3D%228%22%20value%3D%22%26lt%3Bspan%20style%3D%26quot%3Bcolor%3A%20rgba(0%2C%200%2C%200%2C%200)%3B%20font-family%3A%20monospace%3B%20font-size%3A%200px%3B%20text-align%3A%20start%3B%20text-wrap-mode%3A%20nowrap%3B%26quot%3B%26gt%3B%253CmxGraphModel%253E%253Croot%253E%253CmxCell%2520id%253D%25220%2522%252F%253E%253CmxCell%2520id%253D%25221%2522%2520parent%253D%25220%2522%252F%253E%253CmxCell%2520id%253D%25222%2522%2520value%253D%2522%2522%2520style%253D%2522rounded%253D1%253BwhiteSpace%253Dwrap%253Bhtml%253D1%253BfillColor%253D%2523000000%253B%2522%2520vertex%253D%25221%2522%2520parent%253D%25221%2522%253E%253CmxGeometry%2520x%253D%25221490%2522%2520y%253D%2522590%2522%2520width%253D%252249.5%2522%2520height%253D%252247%2522%2520as%253D%2522geometry%2522%252F%253E%253C%252FmxCell%253E%253C%252Froot%253E%253C%252FmxGraphModel%253E%26lt%3B%2Fspan%26gt%3B%22%20style%3D%22rounded%3D1%3BwhiteSpace%3Dwrap%3Bhtml%3D1%3BfillColor%3D%23000000%3B%22%20vertex%3D%221%22%20parent%3D%222%22%3E%3CmxGeometry%20x%3D%2230%22%20y%3D%2239%22%20width%3D%2240.76%22%20height%3D%2211%22%20as%3D%22geometry%22%2F%3E%3C%2FmxCell%3E%3CmxCell%20id%3D%229%22%20value%3D%22%22%20style%3D%22rounded%3D1%3BwhiteSpace%3Dwrap%3Bhtml%3D1%3B%22%20vertex%3D%221%22%20parent%3D%222%22%3E%3CmxGeometry%20x%3D%2230%22%20y%3D%22155%22%20width%3D%22140%22%20height%3D%2240%22%20as%3D%22geometry%22%2F%3E%3C%2FmxCell%3E%3C%2Froot%3E%3C%2FmxGraphModel%3E&lt;/span&gt;" style="rounded=1;whiteSpace=wrap;html=1;" vertex="1" parent="iueE4eXsbI2JWCtUVOEt-188">
          <mxGeometry width="140" height="29" as="geometry" />
        </mxCell>
        <mxCell id="iueE4eXsbI2JWCtUVOEt-190" value="" style="rounded=0;whiteSpace=wrap;html=1;" vertex="1" parent="iueE4eXsbI2JWCtUVOEt-188">
          <mxGeometry x="8" y="9" width="36" height="10" as="geometry" />
        </mxCell>
        <mxCell id="iueE4eXsbI2JWCtUVOEt-191" value="" style="rounded=0;whiteSpace=wrap;html=1;" vertex="1" parent="iueE4eXsbI2JWCtUVOEt-188">
          <mxGeometry x="56" y="9.5" width="74" height="10" as="geometry" />
        </mxCell>
        <mxCell id="iueE4eXsbI2JWCtUVOEt-192" value="" style="group" vertex="1" connectable="0" parent="1">
          <mxGeometry x="2006" y="750" width="140" height="29" as="geometry" />
        </mxCell>
        <mxCell id="iueE4eXsbI2JWCtUVOEt-193" value="&lt;span style=&quot;color: rgba(0, 0, 0, 0); font-family: monospace; font-size: 0px; text-align: start; text-wrap-mode: nowrap;&quot;&gt;%3CmxGraphModel%3E%3Croot%3E%3CmxCell%20id%3D%220%22%2F%3E%3CmxCell%20id%3D%221%22%20parent%3D%220%22%2F%3E%3CmxCell%20id%3D%222%22%20value%3D%22v%22%20style%3D%22group%22%20vertex%3D%221%22%20connectable%3D%220%22%20parent%3D%221%22%3E%3CmxGeometry%20x%3D%221400%22%20y%3D%22521%22%20width%3D%22200%22%20height%3D%22350%22%20as%3D%22geometry%22%2F%3E%3C%2FmxCell%3E%3CmxCell%20id%3D%223%22%20value%3D%22%22%20style%3D%22rounded%3D1%3BwhiteSpace%3Dwrap%3Bhtml%3D1%3B%22%20vertex%3D%221%22%20parent%3D%222%22%3E%3CmxGeometry%20width%3D%22200%22%20height%3D%22350%22%20as%3D%22geometry%22%2F%3E%3C%2FmxCell%3E%3CmxCell%20id%3D%224%22%20value%3D%22%22%20style%3D%22group%22%20vertex%3D%221%22%20connectable%3D%220%22%20parent%3D%222%22%3E%3CmxGeometry%20x%3D%2230%22%20y%3D%2299%22%20width%3D%22140%22%20height%3D%2238.71%22%20as%3D%22geometry%22%2F%3E%3C%2FmxCell%3E%3CmxCell%20id%3D%225%22%20value%3D%22%26lt%3Bspan%20style%3D%26quot%3Bcolor%3A%20rgba(0%2C%200%2C%200%2C%200)%3B%20font-family%3A%20monospace%3B%20font-size%3A%200px%3B%20text-align%3A%20start%3B%20text-wrap-mode%3A%20nowrap%3B%26quot%3B%26gt%3B%253CmxGraphModel%253E%253Croot%253E%253CmxCell%2520id%253D%25220%2522%252F%253E%253CmxCell%2520id%253D%25221%2522%2520parent%253D%25220%2522%252F%253E%253CmxCell%2520id%253D%25222%2522%2520value%253D%2522%2522%2520style%253D%2522rounded%253D1%253BwhiteSpace%253Dwrap%253Bhtml%253D1%253BfillColor%253D%2523000000%253B%2522%2520vertex%253D%25221%2522%2520parent%253D%25221%2522%253E%253CmxGeometry%2520x%253D%25221490%2522%2520y%253D%2522590%2522%2520width%253D%252249.5%2522%2520height%253D%252247%2522%2520as%253D%2522geometry%2522%252F%253E%253C%252FmxCell%253E%253C%252Froot%253E%253C%252FmxGraphModel%253E%26lt%3B%2Fspan%26gt%3B%22%20style%3D%22rounded%3D1%3BwhiteSpace%3Dwrap%3Bhtml%3D1%3BfillColor%3D%23000000%3B%22%20vertex%3D%221%22%20parent%3D%224%22%3E%3CmxGeometry%20width%3D%2240.764705882352935%22%20height%3D%2238.71%22%20as%3D%22geometry%22%2F%3E%3C%2FmxCell%3E%3CmxCell%20id%3D%226%22%20value%3D%22%22%20style%3D%22rounded%3D1%3BwhiteSpace%3Dwrap%3Bhtml%3D1%3BfillColor%3D%23000000%3B%22%20vertex%3D%221%22%20parent%3D%224%22%3E%3CmxGeometry%20x%3D%2249.41176470588235%22%20width%3D%2240.764705882352935%22%20height%3D%2238.71%22%20as%3D%22geometry%22%2F%3E%3C%2FmxCell%3E%3CmxCell%20id%3D%227%22%20value%3D%22%22%20style%3D%22rounded%3D1%3BwhiteSpace%3Dwrap%3Bhtml%3D1%3BfillColor%3D%23000000%3B%22%20vertex%3D%221%22%20parent%3D%224%22%3E%3CmxGeometry%20x%3D%2299.23529411764706%22%20width%3D%2240.764705882352935%22%20height%3D%2238.71%22%20as%3D%22geometry%22%2F%3E%3C%2FmxCell%3E%3CmxCell%20id%3D%228%22%20value%3D%22%26lt%3Bspan%20style%3D%26quot%3Bcolor%3A%20rgba(0%2C%200%2C%200%2C%200)%3B%20font-family%3A%20monospace%3B%20font-size%3A%200px%3B%20text-align%3A%20start%3B%20text-wrap-mode%3A%20nowrap%3B%26quot%3B%26gt%3B%253CmxGraphModel%253E%253Croot%253E%253CmxCell%2520id%253D%25220%2522%252F%253E%253CmxCell%2520id%253D%25221%2522%2520parent%253D%25220%2522%252F%253E%253CmxCell%2520id%253D%25222%2522%2520value%253D%2522%2522%2520style%253D%2522rounded%253D1%253BwhiteSpace%253Dwrap%253Bhtml%253D1%253BfillColor%253D%2523000000%253B%2522%2520vertex%253D%25221%2522%2520parent%253D%25221%2522%253E%253CmxGeometry%2520x%253D%25221490%2522%2520y%253D%2522590%2522%2520width%253D%252249.5%2522%2520height%253D%252247%2522%2520as%253D%2522geometry%2522%252F%253E%253C%252FmxCell%253E%253C%252Froot%253E%253C%252FmxGraphModel%253E%26lt%3B%2Fspan%26gt%3B%22%20style%3D%22rounded%3D1%3BwhiteSpace%3Dwrap%3Bhtml%3D1%3BfillColor%3D%23000000%3B%22%20vertex%3D%221%22%20parent%3D%222%22%3E%3CmxGeometry%20x%3D%2230%22%20y%3D%2239%22%20width%3D%2240.76%22%20height%3D%2211%22%20as%3D%22geometry%22%2F%3E%3C%2FmxCell%3E%3CmxCell%20id%3D%229%22%20value%3D%22%22%20style%3D%22rounded%3D1%3BwhiteSpace%3Dwrap%3Bhtml%3D1%3B%22%20vertex%3D%221%22%20parent%3D%222%22%3E%3CmxGeometry%20x%3D%2230%22%20y%3D%22155%22%20width%3D%22140%22%20height%3D%2240%22%20as%3D%22geometry%22%2F%3E%3C%2FmxCell%3E%3C%2Froot%3E%3C%2FmxGraphModel%3E&lt;/span&gt;" style="rounded=1;whiteSpace=wrap;html=1;" vertex="1" parent="iueE4eXsbI2JWCtUVOEt-192">
          <mxGeometry width="140" height="29" as="geometry" />
        </mxCell>
        <mxCell id="iueE4eXsbI2JWCtUVOEt-194" value="" style="rounded=0;whiteSpace=wrap;html=1;" vertex="1" parent="iueE4eXsbI2JWCtUVOEt-192">
          <mxGeometry x="8" y="9" width="36" height="10" as="geometry" />
        </mxCell>
        <mxCell id="iueE4eXsbI2JWCtUVOEt-195" value="" style="rounded=0;whiteSpace=wrap;html=1;" vertex="1" parent="iueE4eXsbI2JWCtUVOEt-192">
          <mxGeometry x="56" y="9.5" width="74" height="10" as="geometry" />
        </mxCell>
        <mxCell id="iueE4eXsbI2JWCtUVOEt-196" value="" style="rounded=0;whiteSpace=wrap;html=1;" vertex="1" parent="1">
          <mxGeometry x="2012" y="646" width="7" height="19" as="geometry" />
        </mxCell>
        <mxCell id="iueE4eXsbI2JWCtUVOEt-197" value="" style="rounded=0;whiteSpace=wrap;html=1;" vertex="1" parent="1">
          <mxGeometry x="2027.88" y="640" width="7" height="25" as="geometry" />
        </mxCell>
        <mxCell id="iueE4eXsbI2JWCtUVOEt-198" value="" style="rounded=0;whiteSpace=wrap;html=1;" vertex="1" parent="1">
          <mxGeometry x="2044.76" y="649" width="7" height="16" as="geometry" />
        </mxCell>
        <mxCell id="iueE4eXsbI2JWCtUVOEt-199" value="" style="rounded=0;whiteSpace=wrap;html=1;" vertex="1" parent="1">
          <mxGeometry x="2061" y="650" width="7" height="15" as="geometry" />
        </mxCell>
        <mxCell id="iueE4eXsbI2JWCtUVOEt-200" value="" style="rounded=0;whiteSpace=wrap;html=1;" vertex="1" parent="1">
          <mxGeometry x="2078" y="645" width="7" height="20" as="geometry" />
        </mxCell>
        <mxCell id="iueE4eXsbI2JWCtUVOEt-201" value="" style="rounded=0;whiteSpace=wrap;html=1;" vertex="1" parent="1">
          <mxGeometry x="2093.9" y="640" width="7" height="25" as="geometry" />
        </mxCell>
        <mxCell id="iueE4eXsbI2JWCtUVOEt-202" value="" style="rounded=0;whiteSpace=wrap;html=1;" vertex="1" parent="1">
          <mxGeometry x="2111" y="629" width="7" height="36" as="geometry" />
        </mxCell>
        <mxCell id="iueE4eXsbI2JWCtUVOEt-204" value="" style="rounded=0;whiteSpace=wrap;html=1;" vertex="1" parent="1">
          <mxGeometry x="2127" y="620" width="7" height="45" as="geometry" />
        </mxCell>
        <mxCell id="iueE4eXsbI2JWCtUVOEt-205" style="edgeStyle=orthogonalEdgeStyle;rounded=0;orthogonalLoop=1;jettySize=auto;html=1;" edge="1" parent="1" source="iueE4eXsbI2JWCtUVOEt-3" target="iueE4eXsbI2JWCtUVOEt-14">
          <mxGeometry relative="1" as="geometry" />
        </mxCell>
        <mxCell id="iueE4eXsbI2JWCtUVOEt-206" style="edgeStyle=orthogonalEdgeStyle;rounded=0;orthogonalLoop=1;jettySize=auto;html=1;" edge="1" parent="1" source="iueE4eXsbI2JWCtUVOEt-29" target="iueE4eXsbI2JWCtUVOEt-31">
          <mxGeometry relative="1" as="geometry" />
        </mxCell>
        <mxCell id="iueE4eXsbI2JWCtUVOEt-208" style="edgeStyle=orthogonalEdgeStyle;rounded=0;orthogonalLoop=1;jettySize=auto;html=1;entryX=0.02;entryY=0.725;entryDx=0;entryDy=0;entryPerimeter=0;" edge="1" parent="1" source="iueE4eXsbI2JWCtUVOEt-34" target="iueE4eXsbI2JWCtUVOEt-36">
          <mxGeometry relative="1" as="geometry" />
        </mxCell>
        <mxCell id="iueE4eXsbI2JWCtUVOEt-209" style="edgeStyle=orthogonalEdgeStyle;rounded=0;orthogonalLoop=1;jettySize=auto;html=1;entryX=0.021;entryY=0.718;entryDx=0;entryDy=0;entryPerimeter=0;" edge="1" parent="1" source="iueE4eXsbI2JWCtUVOEt-38" target="iueE4eXsbI2JWCtUVOEt-44">
          <mxGeometry relative="1" as="geometry" />
        </mxCell>
        <mxCell id="iueE4eXsbI2JWCtUVOEt-210" style="edgeStyle=orthogonalEdgeStyle;rounded=0;orthogonalLoop=1;jettySize=auto;html=1;" edge="1" parent="1" source="iueE4eXsbI2JWCtUVOEt-45" target="iueE4eXsbI2JWCtUVOEt-71">
          <mxGeometry relative="1" as="geometry" />
        </mxCell>
        <mxCell id="iueE4eXsbI2JWCtUVOEt-211" style="edgeStyle=orthogonalEdgeStyle;rounded=0;orthogonalLoop=1;jettySize=auto;html=1;entryX=0.535;entryY=1;entryDx=0;entryDy=0;entryPerimeter=0;" edge="1" parent="1" source="iueE4eXsbI2JWCtUVOEt-122" target="iueE4eXsbI2JWCtUVOEt-94">
          <mxGeometry relative="1" as="geometry">
            <Array as="points">
              <mxPoint x="1592" y="847" />
              <mxPoint x="1592" y="949" />
              <mxPoint x="1807" y="949" />
            </Array>
          </mxGeometry>
        </mxCell>
        <mxCell id="iueE4eXsbI2JWCtUVOEt-212" style="edgeStyle=orthogonalEdgeStyle;rounded=0;orthogonalLoop=1;jettySize=auto;html=1;entryX=0.5;entryY=1;entryDx=0;entryDy=0;" edge="1" parent="1" source="iueE4eXsbI2JWCtUVOEt-148" target="iueE4eXsbI2JWCtUVOEt-153">
          <mxGeometry relative="1" as="geometry">
            <Array as="points">
              <mxPoint x="1902" y="846" />
              <mxPoint x="1902" y="945" />
              <mxPoint x="2076" y="945" />
            </Array>
          </mxGeometry>
        </mxCell>
      </root>
    </mxGraphModel>
  </diagram>
</mxfile>
